<svg id="Capa_1" enable-background="new 0 0 497 497" height="512" viewBox="0 0 497 497" width="512" xmlns="http://www.w3.org/2000/svg"><g><g fill="#adf2f5"><path d="m312.14 470.64c5.858-5.858 5.858-15.355 0-21.213l-21.213-21.213-21.213 21.213 21.213 21.213c5.857 5.857 15.355 5.857 21.213 0z"/><path d="m184.86 470.64c-5.858-5.858-5.858-15.355 0-21.213l21.213-21.213 21.213 21.213-21.213 21.213c-5.857 5.857-15.355 5.857-21.213 0z"/><path d="m248.5 497c8.284 0 15-6.716 15-15v-30h-30v30c0 8.284 6.716 15 15 15z"/><path d="m184.86 26.36c-5.858 5.858-5.858 15.355 0 21.213l21.213 21.213 21.213-21.213-21.213-21.213c-5.857-5.857-15.355-5.857-21.213 0z"/><path d="m312.14 26.36c5.858 5.858 5.858 15.355 0 21.213l-21.213 21.213-21.213-21.213 21.213-21.213c5.857-5.857 15.355-5.857 21.213 0z"/><path d="m248.5 0c-8.284 0-15 6.716-15 15v30h30v-30c0-8.284-6.716-15-15-15z"/><path d="m24.302 192.544c2.144 8.002 10.369 12.751 18.371 10.607l28.978-7.765-7.765-28.978-28.978 7.765c-8.002 2.144-12.751 10.369-10.606 18.371z"/><path d="m87.941 82.317c8.002-2.144 16.227 2.605 18.371 10.607l7.765 28.978-28.978 7.765-7.765-28.978c-2.144-8.003 2.605-16.228 10.607-18.372z"/><path d="m33.293 124.25c-4.142 7.174-1.684 16.348 5.49 20.49l25.981 15 15-25.981-25.981-15c-7.174-4.141-16.348-1.683-20.49 5.491z"/><path d="m87.941 414.683c8.002 2.144 16.227-2.605 18.371-10.607l7.765-28.978-28.978-7.765-7.765 28.978c-2.143 8.003 2.605 16.228 10.607 18.372z"/><path d="m24.302 304.456c2.144-8.002 10.369-12.751 18.371-10.607l28.978 7.765-7.765 28.978-28.978-7.765c-8.002-2.144-12.75-10.369-10.606-18.371z"/><path d="m33.293 372.75c4.142 7.174 13.316 9.632 20.49 5.49l25.981-15-15-25.981-25.981 15c-7.174 4.143-9.632 13.317-5.49 20.491z"/><path d="m472.698 304.456c-2.144-8.002-10.369-12.751-18.371-10.607l-28.978 7.765 7.765 28.978 28.978-7.765c8.002-2.144 12.751-10.369 10.606-18.371z"/><path d="m409.059 414.683c-8.002 2.144-16.227-2.605-18.371-10.607l-7.765-28.978 28.978-7.765 7.765 28.978c2.144 8.003-2.605 16.228-10.607 18.372z"/><path d="m463.707 372.75c4.142-7.174 1.684-16.348-5.49-20.49l-25.981-15-15 25.981 25.981 15c7.174 4.141 16.348 1.683 20.49-5.491z"/><path d="m409.059 82.317c-8.002-2.144-16.227 2.605-18.371 10.607l-7.765 28.978 28.978 7.765 7.765-28.978c2.143-8.003-2.605-16.228-10.607-18.372z"/><path d="m472.698 192.544c-2.144 8.002-10.369 12.751-18.371 10.607l-28.978-7.765 7.765-28.978 28.978 7.765c8.002 2.144 12.75 10.369 10.606 18.371z"/><path d="m463.707 124.25c-4.142-7.174-13.316-9.632-20.49-5.49l-25.981 15 15 25.981 25.981-15c7.174-4.143 9.632-13.317 5.49-20.491z"/></g><path d="m432.236 337.26-7.609-4.393 8.487-2.274c8.002-2.144 12.751-10.369 10.607-18.371s-10.369-12.751-18.371-10.607l-37.465 10.039-26.885-15.523v-32.631h21.55c8.284 0 15-6.716 15-15s-6.716-15-15-15h-21.55v-32.631l26.884-15.522 37.465 10.039c8.002 2.144 16.227-2.605 18.371-10.607s-2.605-16.227-10.607-18.371l-8.487-2.274 7.61-4.393c7.174-4.142 9.632-13.316 5.49-20.49s-13.316-9.633-20.49-5.49l-7.61 4.393 2.274-8.488c2.144-8.002-2.605-16.227-10.607-18.371s-16.227 2.605-18.371 10.607l-10.039 37.466-26.885 15.522-28.259-16.316 10.775-18.663c4.142-7.174 1.684-16.348-5.49-20.49s-16.348-1.684-20.49 5.49l-10.775 18.662-28.26-16.316v-31.044l27.427-27.427c5.858-5.858 5.858-15.355 0-21.213s-15.355-5.858-21.213 0l-6.213 6.213v-8.786c0-8.284-6.716-15-15-15s-15 6.716-15 15v8.787l-6.213-6.213c-5.858-5.858-15.355-5.858-21.213 0s-5.858 15.355 0 21.213l27.426 27.426v31.043l-28.26 16.316-10.775-18.662c-4.142-7.174-13.316-9.632-20.49-5.49s-9.632 13.316-5.49 20.49l10.775 18.663-28.26 16.315-26.885-15.522-10.039-37.465c-2.144-8.002-10.369-12.751-18.371-10.607s-12.751 10.369-10.607 18.371l2.274 8.487-7.609-4.393c-7.174-4.142-16.348-1.684-20.49 5.49s-1.684 16.348 5.49 20.49l7.609 4.393-8.487 2.274c-8.002 2.144-12.751 10.369-10.607 18.371s10.369 12.751 18.371 10.607l37.466-10.039 26.885 15.524v32.631h-21.549c-8.284 0-15 6.716-15 15s6.716 15 15 15h21.549v32.631l-26.884 15.521s-37.465-10.039-37.465-10.039c-8.002-2.144-16.227 2.605-18.371 10.607s2.605 16.227 10.607 18.371l8.487 2.274-7.609 4.393c-7.174 4.142-9.632 13.316-5.49 20.49s13.316 9.633 20.49 5.49l7.609-4.393-2.274 8.488c-2.144 8.002 2.605 16.227 10.607 18.371s16.227-2.605 18.371-10.607l10.039-37.466 26.885-15.522 28.259 16.316-10.775 18.663c-4.142 7.174-1.684 16.348 5.49 20.49s16.348 1.684 20.49-5.49l10.775-18.662 28.259 16.316v31.043l-27.427 27.427c-5.858 5.858-5.858 15.355 0 21.213s15.355 5.858 21.213 0l6.213-6.213v8.788c0 8.284 6.716 15 15 15s15-6.716 15-15v-8.787l6.213 6.213c5.858 5.858 15.355 5.858 21.213 0s5.858-15.355 0-21.213l-27.425-27.426v-31.043l28.26-16.316 10.775 18.663c4.142 7.174 13.316 9.632 20.49 5.49s9.633-13.316 5.49-20.49l-10.775-18.663 28.259-16.316 26.885 15.522 10.039 37.465c2.144 8.002 10.369 12.751 18.371 10.607s12.751-10.369 10.607-18.371l-2.274-8.487 7.609 4.393c7.174 4.142 16.348 1.684 20.49-5.49 4.143-7.175 1.685-16.349-5.49-20.491zm-101.236-41.129-82.5 47.632-82.5-47.632v-95.262l82.5-47.632 82.5 47.632z" fill="#d6f9fa"/><path d="m264 211c-5.881 0-11.277 2.074-15.5 5.528l-15 18.972 15 50.5s40-18.817 40-50.5c0-13.531-10.969-24.5-24.5-24.5z" fill="#ff3a33"/><path d="m233 211c-13.531 0-24.5 10.969-24.5 24.5 0 31.683 40 50.5 40 50.5v-69.472c-4.223-3.454-9.619-5.528-15.5-5.528z" fill="#ff534d"/></g></svg>