<svg xmlns="http://www.w3.org/2000/svg" xmlns:xlink="http://www.w3.org/1999/xlink" id="Layer_1" x="0px" y="0px" viewBox="0 0 365 298" style="enable-background:new 0 0 365 298;" xml:space="preserve">
<style type="text/css">
	.st0{fill:#603913;}
	.st1{fill-rule:evenodd;clip-rule:evenodd;fill:#AFD8CC;}
	.st2{fill-rule:evenodd;clip-rule:evenodd;fill:#FFFFFF;}
</style>
<circle class="st0" cx="99.3" cy="283.2" r="2.2"></circle>
<circle class="st0" cx="236.4" cy="283.2" r="2.2"></circle>
<path class="st0" d="M29.9,287.9c-0.2,0.1-0.4,0.3-0.6,0.4c-0.3,0.1-0.6,0.3-0.9,0.4c-0.4,0.1-0.8,0.2-1.2,0.3  c-0.5,0.1-1,0.1-1.4,0.1c-1,0-2-0.2-2.9-0.5c-1.8-0.6-3.2-1.9-3.9-3.7c-0.7-2-0.7-4.1,0-6.1c0.3-0.9,0.9-1.6,1.6-2.3  c0.7-0.6,1.5-1.1,2.4-1.4c1-0.3,2-0.5,3.1-0.5c0.8,0,1.6,0.1,2.4,0.3c0.7,0.2,1.3,0.4,1.9,0.6c-0.1,0.2-0.2,0.5-0.3,0.8  c-0.1,0.3-0.1,0.6-0.2,0.8h-0.1c-0.2-0.2-0.4-0.4-0.6-0.5c-0.3-0.2-0.5-0.4-0.8-0.6c-0.3-0.2-0.7-0.4-1.1-0.5  c-0.4-0.1-0.9-0.2-1.3-0.2c-0.8,0-1.5,0.1-2.2,0.4c-0.7,0.3-1.3,0.7-1.7,1.3c-0.5,0.6-0.9,1.3-1.2,2c-0.6,1.9-0.6,3.9,0,5.8  c0.2,0.7,0.7,1.4,1.2,2c0.5,0.5,1.1,0.9,1.8,1.2c0.7,0.3,1.5,0.4,2.2,0.4c0.5,0,0.9-0.1,1.3-0.2c0.4-0.1,0.8-0.3,1.1-0.4  c0.3-0.2,0.6-0.3,0.9-0.5c0.3-0.2,0.5-0.4,0.7-0.5l0.1,0.1L29.9,287.9z"></path>
<path class="st0" d="M51.9,287.6c-0.3-0.6-0.6-1.4-1-2.2l-1.1-2.6l-1.2-2.8c-0.4-1-0.8-1.9-1.2-2.8s-0.7-1.8-1.1-2.6H46  c-1.1,2.5-2.1,4.9-3.2,7.3c-1.1,2.4-2.2,4.8-3.3,7.3l0.4-0.1h0.4c0.1,0,0.3,0,0.4,0l0.4,0.1c0.2-0.7,0.4-1.5,0.8-2.5s0.8-2,1.2-3.1  h1.3H47h1.3c0.2,0.5,0.4,0.9,0.6,1.4s0.4,1,0.6,1.5s0.4,1,0.5,1.4s0.3,0.9,0.4,1.2l0.5-0.1c0.4,0,0.7,0,1.1,0l0.5,0.1L51.9,287.6z   M46.9,282.6h-1.2h-1.1h-1.1l2.3-5.2l2.3,5.2H46.9z"></path>
<path class="st0" d="M62.5,289.2l0.1-2.7c0-0.9,0-1.8,0-2.7v-3.6c0-0.9,0-1.8,0-2.7l-0.1-2.7l0.5,0.1c0.2,0,0.3,0,0.5,0H64l0.5-0.1  c0,0.9-0.1,1.8-0.1,2.7s-0.1,1.8-0.1,2.7v1.2c0,0.1,0.1,0.2,0.1,0.2s0.1-0.1,0.3-0.2c0.5-0.4,1-0.9,1.5-1.4s1.1-1.1,1.6-1.7  s1.1-1.2,1.6-1.8s1-1.2,1.5-1.7c0.3,0.1,0.6,0.1,0.9,0.1h0.5l0.5-0.1c-0.5,0.4-1,0.9-1.7,1.5s-1.2,1.2-1.9,1.8s-1.2,1.2-1.8,1.8  s-1,1.1-1.4,1.5c1.1,1.3,2.3,2.6,3.4,3.9s2.3,2.7,3.5,4l-0.6-0.1c-0.2,0-0.4,0-0.6,0h-0.6l-0.6,0.1l-1.7-2l-1.8-2.1  c-0.6-0.7-1.1-1.3-1.6-1.9s-0.8-0.9-1-1.2c-0.1-0.1-0.2-0.1-0.3-0.2c-0.1,0-0.1,0-0.1,0.1v1.8c0,0.9,0,1.8,0.1,2.7s0.1,1.8,0.1,2.7  l-0.5-0.1h-0.5c-0.2,0-0.3,0-0.5,0L62.5,289.2z"></path>
<path class="st0" d="M83.3,280.1c0-0.9,0-1.8-0.1-2.7s-0.1-1.8-0.1-2.7l1.9,0.1c0.6,0,1.3,0,1.9,0s1.3,0,1.9,0l1.9-0.1  c-0.1,0.4-0.1,0.8,0,1.3l-1.2-0.1l-1.2-0.1c-0.4,0-0.9,0-1.4-0.1s-1.1,0-1.8,0c0,0.4,0,0.9-0.1,1.3s0,0.9,0,1.4s0,1.1,0,1.6  s0,0.9,0,1.2c1.2,0,2.2,0,3-0.1s1.5-0.1,2.1-0.1c0,0.2-0.1,0.4-0.1,0.6c0,0.2,0,0.4,0.1,0.6c-0.4,0-0.8-0.1-1.3-0.1l-1.4,0H86h-1  c0,0.1,0,0.3,0,0.4s0,0.3,0,0.5v2c0,0.8,0,1.5,0,2s0,0.9,0,1.2h1.5h1.6c0.5,0,1,0,1.4-0.1c0.4,0,0.8-0.1,1.2-0.2c0,0.1,0,0.2,0,0.3  c0,0.1,0,0.2,0,0.3c0,0.2,0,0.4,0.1,0.6l-1.9-0.1c-0.6,0-1.3,0-1.9,0s-1.3,0-1.9,0l-1.9,0.1c0-0.9,0.1-1.8,0.1-2.8s0.1-1.8,0.1-2.7  L83.3,280.1z"></path>
<path class="st0" d="M280.3,278.9c-0.3-0.9-0.9-1.6-1.5-2.3c-0.7-0.6-1.5-1.1-2.4-1.4c-2-0.6-4.1-0.6-6.1,0  c-0.9,0.3-1.7,0.8-2.4,1.4c-0.7,0.6-1.2,1.4-1.5,2.3c-0.4,1-0.6,2-0.5,3.1c0,1,0.2,2,0.5,3c0.3,0.9,0.9,1.6,1.5,2.3  c0.7,0.6,1.5,1.1,2.4,1.4c2,0.6,4.1,0.6,6.1,0c0.9-0.3,1.7-0.8,2.4-1.4c0.7-0.6,1.2-1.4,1.5-2.3c0.4-1,0.6-2,0.6-3  C280.9,280.9,280.7,279.8,280.3,278.9z M278.5,284.8c-0.2,0.7-0.7,1.4-1.2,2c-0.5,0.5-1.1,0.9-1.8,1.2c-1.4,0.5-3,0.5-4.4,0  c-0.7-0.3-1.3-0.7-1.8-1.2c-0.5-0.6-0.9-1.3-1.2-2c-0.6-1.9-0.6-3.9,0-5.8c0.2-0.7,0.6-1.4,1.2-2c0.5-0.5,1.1-0.9,1.8-1.2  c1.4-0.5,3-0.5,4.4,0c0.7,0.3,1.3,0.7,1.8,1.2c0.5,0.6,0.9,1.3,1.2,2C279,280.9,279,282.9,278.5,284.8z"></path>
<path class="st0" d="M255.7,288c-0.2,0.1-0.4,0.3-0.6,0.4c-0.3,0.1-0.6,0.3-1,0.4c-0.4,0.1-0.8,0.2-1.2,0.3c-0.5,0.1-1,0.1-1.4,0.1  c-1,0-2-0.2-3-0.5c-1.8-0.6-3.2-1.9-3.9-3.7c-0.4-1-0.6-2-0.5-3c0-1,0.2-2.1,0.5-3.1c0.3-0.9,0.9-1.6,1.6-2.3  c0.7-0.6,1.5-1.1,2.4-1.4c1-0.3,2-0.5,3.1-0.5c0.8,0,1.6,0.1,2.4,0.3c0.7,0.2,1.3,0.4,1.9,0.7c-0.1,0.2-0.2,0.5-0.3,0.8  c-0.1,0.3-0.1,0.6-0.2,0.8h-0.1c-0.1-0.2-0.3-0.3-0.6-0.5c-0.3-0.2-0.5-0.4-0.8-0.6c-0.3-0.2-0.7-0.4-1.1-0.5  c-0.4-0.1-0.9-0.2-1.3-0.2c-0.8,0-1.5,0.1-2.2,0.4c-0.7,0.2-1.3,0.7-1.8,1.2c-0.5,0.6-0.9,1.3-1.2,2c-0.6,1.9-0.6,3.9,0,5.8  c0.2,0.7,0.6,1.4,1.2,2c0.5,0.5,1.1,0.9,1.8,1.2c0.7,0.3,1.5,0.4,2.2,0.4c0.5,0,0.9-0.1,1.3-0.2c0.4-0.1,0.8-0.3,1.1-0.4  c0.3-0.2,0.6-0.3,0.9-0.5l0.7-0.5l0.1,0.1L255.7,288z"></path>
<path class="st0" d="M324.6,280.1c0-0.9,0-1.8-0.1-2.7s-0.1-1.8-0.1-2.7l1.9,0.1c0.6,0,1.3,0,1.9,0s1.3,0,1.9,0l1.9-0.1  c-0.1,0.4-0.1,0.8,0,1.3l-1.2-0.1l-1.2-0.1c-0.4,0-0.9,0-1.4-0.1s-1.1,0-1.8,0c0,0.4,0,0.9-0.1,1.3s0,0.9,0,1.4s0,1.1,0,1.6  s0,0.9,0,1.2c1.2,0,2.2,0,3-0.1s1.5-0.1,2.1-0.1c0,0.2-0.1,0.4-0.1,0.6c0,0.2,0,0.4,0.1,0.6c-0.4,0-0.8-0.1-1.3-0.1l-1.5,0h-1.4h-1  c0,0.1,0,0.3,0,0.4s0,0.3,0,0.5v2c0,0.8,0,1.5,0,2s0,0.9,0,1.2h1.5h1.5c0.5,0,1,0,1.5-0.1c0.4,0,0.8-0.1,1.2-0.2c0,0.1,0,0.2,0,0.3  c0,0.1,0,0.2,0,0.3c0,0.2,0,0.4,0.1,0.6l-1.9-0.1c-0.6,0-1.3,0-1.9,0s-1.3,0-1.9,0l-1.9,0.1c0-0.9,0.1-1.8,0.1-2.8s0.1-1.8,0.1-2.7  V280.1z"></path>
<path class="st0" d="M341.1,280.1c0-0.9,0-1.8-0.1-2.7s-0.1-1.8-0.1-2.7l1.9,0.1c0.6,0,1.3,0,1.9,0s1.3,0,1.9,0l1.9-0.1  c-0.1,0.4-0.1,0.8,0,1.3l-1.2-0.1l-1.2-0.1c-0.4,0-0.9,0-1.4-0.1s-1.1,0-1.8,0c0,0.4,0,0.9,0,1.3s0,0.9,0,1.4s0,1.1,0,1.6  s0,0.9,0,1.2c1.2,0,2.2,0,3-0.1s1.5-0.1,2.1-0.1c0,0.2-0.1,0.4-0.1,0.6c0,0.2,0,0.4,0.1,0.6c-0.4,0-0.8-0.1-1.3-0.1l-1.5,0h-1.4h-1  c0,0.1,0,0.3,0,0.4s0,0.3,0,0.5v2c0,0.8,0,1.5,0,2s0,0.9,0,1.2h1.5h1.6c0.5,0,1,0,1.5-0.1c0.4,0,0.8-0.1,1.2-0.2c0,0.1,0,0.2,0,0.3  c0,0.1,0,0.2,0,0.3c0,0.2,0,0.4,0.1,0.6l-1.9-0.1c-0.6,0-1.3,0-1.9,0s-1.3,0-1.9,0l-1.9,0.1c0-0.9,0.1-1.8,0.1-2.8s0.1-1.8,0.1-2.7  L341.1,280.1z"></path>
<path class="st0" d="M291.1,279.9c0-0.9,0-1.8,0-2.6s-0.1-1.7-0.1-2.6l1.8,0.1c0.6,0,1.2,0,1.8,0h1.9l2-0.1c-0.1,0.4-0.1,0.8,0,1.2  c-0.4,0-0.8-0.1-1.3-0.1l-1.6-0.1l-1.5-0.1h-1.2c0,0.5,0,0.9,0,1.4s0,0.9,0,1.3s0,0.9,0,1.3s0,0.8,0,1.3c0.9,0,1.8,0,2.6,0  s1.7-0.1,2.6-0.2c0,0.1,0,0.2-0.1,0.3c0,0.1,0,0.2,0,0.3c0,0.1,0,0.2,0,0.3c0,0.1,0,0.2,0.1,0.3c-0.3,0-0.7-0.1-1.1-0.1h-1.3h-1.4  h-1.4v1.7c0,0.9,0,1.8,0,2.6s0.1,1.8,0.1,2.6l-0.5-0.1c-0.2,0-0.3,0-0.5,0h-0.5l-0.5,0.1c0-0.9,0.1-1.8,0.1-2.6s0-1.7,0-2.6  L291.1,279.9z"></path>
<path class="st0" d="M307.6,279.9c0-0.9,0-1.8,0-2.6s-0.1-1.7-0.1-2.6l1.8,0.1c0.6,0,1.2,0,1.8,0h1.8l2-0.1c-0.1,0.4-0.1,0.8,0,1.2  c-0.4,0-0.8-0.1-1.3-0.1l-1.6-0.1l-1.5-0.1h-1.2c0,0.5,0,0.9,0,1.4s0,0.9,0,1.3s0,0.9,0,1.3s0,0.8,0,1.3c0.9,0,1.8,0,2.6,0  s1.7-0.1,2.6-0.2c0,0.1,0,0.2-0.1,0.3c0,0.1,0,0.2,0,0.3c0,0.1,0,0.2,0,0.3c0,0.1,0,0.2,0.1,0.3c-0.3,0-0.7-0.1-1.1-0.1H312h-1.4  h-1.3v1.7c0,0.9,0,1.8,0,2.6s0.1,1.8,0.1,2.6l-0.5-0.1c-0.2,0-0.3,0-0.5,0H308l-0.5,0.1c0-0.9,0.1-1.8,0.1-2.6s0-1.7,0-2.6  L307.6,279.9z"></path>
<path class="st0" d="M120.6,278.7c-0.2-0.8-0.7-1.6-1.2-2.2c-0.6-0.6-1.3-1.1-2.1-1.4c-1-0.3-2.1-0.5-3.2-0.5c-0.5,0-1.1,0-1.6,0  s-1.1,0-1.6,0s-1.1,0-1.6,0l-1.6-0.1l0.1,2.7c0,0.9,0,1.8,0,2.7v3.6c0,0.9,0,1.8,0,2.7l-0.1,2.7l1.4-0.1c0.5,0,0.9,0,1.4,0  c0.5,0,0.9,0,1.4,0s0.9,0.1,1.4,0.1c0.9,0,1.7-0.1,2.6-0.4c1.9-0.5,3.5-1.8,4.3-3.6c0.5-1.1,0.8-2.3,0.7-3.5  C121,280.7,120.9,279.7,120.6,278.7z M118.3,285c-0.3,0.8-0.8,1.5-1.5,2.1c-0.6,0.5-1.3,0.8-2.1,1c-0.8,0.2-1.5,0.3-2.3,0.3  c-0.5,0-1,0-1.6,0c-0.4,0-0.8-0.1-1.2-0.2c-0.1-1.5-0.1-2.9-0.1-4.5v-3.6c0-0.8,0-1.5,0-2.2s0.1-1.4,0.1-2.1  c0.4-0.1,0.9-0.1,1.5-0.1s1.1-0.1,1.8-0.1c0.8,0,1.6,0.1,2.4,0.3c0.7,0.2,1.4,0.5,1.9,1c0.6,0.5,1,1.1,1.2,1.9c0.3,1,0.5,2,0.4,3  C118.9,282.7,118.8,283.9,118.3,285z"></path>
<path class="st0" d="M130.6,280.1c0-0.9,0-1.8-0.1-2.7s-0.1-1.8-0.1-2.7l1.9,0.1c0.6,0,1.3,0,1.9,0s1.3,0,1.9,0l1.9-0.1  c-0.1,0.4-0.1,0.8,0,1.3l-1.2-0.1l-1.2-0.1c-0.4,0-0.9,0-1.4-0.1c-0.5,0-1.1,0-1.8,0c0,0.4,0,0.9-0.1,1.3s0,0.9,0,1.4s0,1.1,0,1.6  s0,0.9,0,1.2c1.2,0,2.2,0,3-0.1s1.5-0.1,2.1-0.1c0,0.2-0.1,0.4-0.1,0.6c0,0.2,0,0.4,0.1,0.6c-0.4,0-0.8-0.1-1.3-0.1l-1.4,0h-1.4h-1  c0,0.1,0,0.3,0,0.4s0,0.3,0,0.5v2c0,0.8,0,1.5,0,2s0,0.9,0,1.2h1.5h1.6c0.5,0,1,0,1.4-0.1c0.4,0,0.8-0.1,1.2-0.2  c0,0.1,0,0.2-0.1,0.3c0,0.1,0,0.2,0,0.3c0,0.2,0,0.4,0.1,0.6l-1.9-0.1c-0.6,0-1.3,0-1.9,0s-1.3,0-1.9,0l-1.9,0.1  c0-0.9,0.1-1.8,0.1-2.8s0.1-1.8,0.1-2.7L130.6,280.1z"></path>
<path class="st0" d="M183,280.1c0-0.9,0-1.8,0-2.7s-0.1-1.8-0.1-2.7l1.9,0.1c0.6,0,1.3,0,1.9,0s1.3,0,1.9,0l1.9-0.1  c-0.1,0.4-0.1,0.8,0,1.3l-1.2-0.1l-1.2-0.1c-0.4,0-0.9,0-1.4-0.1s-1.1,0-1.8,0c0,0.4,0,0.9-0.1,1.3s0,0.9,0,1.4s0,1.1,0,1.6  s0,0.9,0,1.2c1.2,0,2.2,0,3-0.1s1.5-0.1,2.1-0.1c0,0.2-0.1,0.4-0.1,0.6c0,0.2,0,0.4,0.1,0.6c-0.4,0-0.8-0.1-1.3-0.1l-1.5,0h-1.4h-1  c0,0.1,0,0.3,0,0.4s0,0.3,0,0.5v2c0,0.8,0,1.5,0,2s0,0.9,0,1.2h1.5h1.5c0.5,0,1,0,1.5-0.1c0.4,0,0.8-0.1,1.2-0.2c0,0.1,0,0.2,0,0.3  c0,0.1,0,0.2,0,0.3c0,0.2,0,0.4,0.1,0.6l-1.9-0.1c-0.6,0-1.3,0-1.9,0s-1.3,0-1.9,0l-1.9,0.1c0-0.9,0.1-1.8,0.1-2.8s0-1.8,0-2.7  V280.1z"></path>
<path class="st0" d="M148.1,286.2c0.1,0.3,0.3,0.5,0.4,0.7c0.2,0.3,0.4,0.5,0.7,0.7c0.3,0.2,0.6,0.4,0.9,0.5  c0.4,0.1,0.8,0.2,1.2,0.2c0.4,0,0.8-0.1,1.2-0.2c0.3-0.1,0.7-0.4,0.9-0.6c0.3-0.3,0.5-0.6,0.6-0.9c0.1-0.4,0.2-0.8,0.2-1.1  c0-0.5-0.1-1.1-0.5-1.5c-0.3-0.4-0.7-0.7-1.2-0.9c-0.5-0.3-1-0.5-1.5-0.7c-0.5-0.2-1-0.5-1.5-0.8c-0.5-0.3-0.9-0.7-1.2-1.2  c-0.3-0.6-0.5-1.2-0.5-1.9c0-0.5,0.1-1.1,0.3-1.5c0.2-0.5,0.5-0.9,0.9-1.2c0.4-0.3,0.9-0.6,1.4-0.8c0.6-0.2,1.2-0.3,1.8-0.3  c0.6,0,1.1,0.1,1.7,0.2c0.5,0.2,0.9,0.4,1.3,0.7c-0.1,0.2-0.2,0.5-0.3,0.7c-0.1,0.3-0.2,0.6-0.2,1h-0.3c-0.1-0.2-0.2-0.4-0.3-0.6  c-0.1-0.2-0.3-0.4-0.5-0.6c-0.2-0.2-0.4-0.4-0.7-0.5c-0.3-0.1-0.7-0.2-1-0.2c-0.3,0-0.7,0.1-1,0.2c-0.3,0.1-0.6,0.3-0.8,0.5  c-0.2,0.2-0.4,0.5-0.6,0.8c-0.1,0.3-0.2,0.7-0.2,1c0,0.5,0.1,1.1,0.5,1.5c0.3,0.4,0.7,0.7,1.2,0.9c0.5,0.3,1,0.5,1.5,0.7  c0.5,0.2,1,0.4,1.5,0.7c0.5,0.3,0.9,0.6,1.2,1.1c0.3,0.5,0.5,1.2,0.5,1.8c0,0.6-0.1,1.2-0.3,1.8c-0.2,0.5-0.6,1-1,1.5  c-0.4,0.4-1,0.8-1.6,1c-0.7,0.2-1.4,0.4-2.1,0.4c-0.7,0-1.4-0.1-2-0.4c-0.5-0.2-0.9-0.5-1.3-0.8c0.1-0.3,0.2-0.6,0.3-0.8  c0-0.3,0.1-0.6,0.1-1H148.1z"></path>
<path class="st0" d="M165.8,286.2c0.1,0.3,0.3,0.5,0.4,0.7c0.2,0.3,0.4,0.5,0.7,0.7c0.3,0.2,0.6,0.4,0.9,0.5  c0.4,0.1,0.8,0.2,1.2,0.2c0.4,0,0.8-0.1,1.2-0.2c0.3-0.1,0.7-0.4,0.9-0.6c0.3-0.3,0.5-0.6,0.6-0.9c0.1-0.4,0.2-0.8,0.2-1.1  c0-0.5-0.1-1.1-0.5-1.5c-0.3-0.4-0.7-0.7-1.2-0.9c-0.5-0.2-1-0.5-1.5-0.7c-0.5-0.2-1-0.5-1.5-0.8c-0.5-0.3-0.9-0.7-1.2-1.2  c-0.3-0.6-0.5-1.2-0.5-1.9c0-0.5,0.1-1.1,0.3-1.5c0.2-0.5,0.5-0.9,0.9-1.2c0.4-0.3,0.9-0.6,1.4-0.8c0.6-0.2,1.2-0.3,1.8-0.3  c0.6,0,1.1,0.1,1.7,0.2c0.5,0.2,0.9,0.4,1.3,0.7c-0.1,0.2-0.2,0.5-0.3,0.7c-0.1,0.3-0.2,0.6-0.3,1h-0.2c-0.1-0.2-0.2-0.4-0.3-0.6  c-0.1-0.2-0.3-0.4-0.5-0.6c-0.2-0.2-0.4-0.4-0.7-0.5c-0.3-0.1-0.7-0.2-1-0.2c-0.3,0-0.7,0.1-1,0.2c-0.3,0.1-0.6,0.3-0.8,0.5  c-0.2,0.2-0.4,0.5-0.5,0.8c-0.1,0.3-0.2,0.7-0.2,1c0,0.5,0.1,1.1,0.5,1.5c0.3,0.4,0.7,0.7,1.2,0.9c0.5,0.3,1,0.5,1.5,0.7  c0.5,0.2,1,0.4,1.5,0.7c0.5,0.3,0.9,0.6,1.2,1.1c0.3,0.5,0.5,1.2,0.5,1.8c0,0.6-0.1,1.2-0.3,1.8c-0.2,0.6-0.6,1-1,1.5  c-0.4,0.4-1,0.8-1.6,1c-0.7,0.2-1.4,0.4-2.1,0.4c-0.7,0-1.4-0.1-2-0.4c-0.5-0.2-0.9-0.5-1.3-0.8c0.1-0.3,0.2-0.6,0.3-0.8  c0-0.3,0.1-0.6,0.1-1H165.8z"></path>
<path class="st0" d="M224.4,279.9c0-1.4,0-2.8-0.1-4.2h-1.1h-1.2l-1.1,0.1c-0.4,0-0.7,0.1-1,0.1c0.1-0.2,0.1-0.4,0.1-0.6  c0-0.2,0-0.4-0.1-0.6l2.6,0.1c0.9,0,1.7,0,2.6,0c0.9,0,1.8,0,2.6,0l2.6-0.1c-0.1,0.2-0.1,0.4-0.1,0.6c0,0.2,0,0.4,0.1,0.6  c-0.3,0-0.6-0.1-1-0.1l-1.1-0.1h-1.1H226c0,1.4-0.1,2.8-0.1,4.2v3.5c0,0.9,0,1.8,0,2.6s0.1,1.8,0.1,2.6l-0.5-0.1c-0.2,0-0.3,0-0.5,0  h-0.5l-0.5,0.1c0-0.9,0.1-1.8,0.1-2.6s0-1.7,0-2.6L224.4,279.9z"></path>
<path class="st0" d="M209.8,287.8c-0.3-0.4-0.6-0.8-1-1.2l-1.1-1.4l-1.1-1.4l-1-1.2l-0.7-0.9c0.4-0.1,0.9-0.2,1.3-0.3  c0.5-0.2,0.9-0.4,1.4-0.7c0.4-0.3,0.8-0.7,1.1-1.2c0.3-0.5,0.5-1.1,0.4-1.7c0-0.5-0.1-1.1-0.3-1.5c-0.2-0.4-0.5-0.8-0.9-1  c-0.4-0.3-0.9-0.4-1.3-0.5c-0.5-0.1-1.1-0.2-1.6-0.2c-0.4,0-0.8,0-1.2,0s-0.8,0-1.1,0s-0.8,0-1.2,0l-1.1-0.1c0,0.9,0.1,1.8,0.1,2.6  s0,1.8,0,2.6v3.5c0,0.9,0,1.8,0,2.6s-0.1,1.8-0.1,2.6l0.5-0.1c0.2,0,0.3,0,0.5,0h0.5l0.5,0.1c0-0.9-0.1-1.8-0.1-2.6s0-1.7,0-2.6  v-1.5h0.8c0.4,0.5,0.9,1,1.4,1.6c0.5,0.6,1,1.3,1.5,1.9s0.9,1.3,1.4,1.8s0.7,1,0.9,1.3l0.6-0.1h0.6c0.2,0,0.4,0,0.6,0l0.6,0.1  C210.3,288.4,210,288.1,209.8,287.8z M203.5,281.2c-0.3,0-0.5,0-0.7,0c-0.2,0-0.4,0-0.6-0.1v-1.1c0-0.7,0-1.5,0-2.2s0-1.5,0.1-2.2  c0.2,0,0.5,0,0.8-0.1s0.7,0,1.2,0c0.4,0,0.7,0,1.1,0.1c0.4,0.1,0.7,0.2,1,0.4c0.3,0.2,0.6,0.5,0.8,0.8c0.2,0.4,0.3,0.8,0.3,1.3  c0,0.5-0.1,1.1-0.4,1.5c-0.2,0.4-0.6,0.7-0.9,1c-0.4,0.2-0.8,0.4-1.3,0.5C204.3,281.2,203.9,281.2,203.5,281.2L203.5,281.2z"></path>
<path class="st1" d="M183.1,248.6c-23.2,0-45.9-9.1-64-25.7H85v-5.5c0-4.4-3.6-8-8-8h-5.6v-7.8h-18v-5.2h-5.1  c-5.4,0-9.9-3.9-10.8-9.1c-17-1.1-30.3-15.2-30.3-32.2v-52.7c0-17.1,13.3-31.2,30.3-32.3c0.9-5.3,5.5-9.1,10.8-9.1h5.1v-5.2h18v-7.8  H77c4.4,0,8-3.6,8-8v-5.6h34.1c18.2-16.6,40.8-25.7,64-25.7s45.9,9.1,64,25.7h34.1v5.6c0,4.4,3.6,8,8,8h5.5v7.8h18v5.2h5.1  c5.3,0,9.9,3.9,10.8,9.1c17,1.1,30.3,15.2,30.4,32.3V155c0,17.1-13.3,31.2-30.4,32.3c-0.9,5.3-5.5,9.1-10.8,9.1h-5.1v5.2h-18v7.8  h-5.5c-4.4,0-8,3.6-8,8v5.5h-34.1C229,239.5,206.3,248.6,183.1,248.6z"></path>
<path class="st0" d="M183.1,249.2c-23.2,0-46-9.1-64.2-25.7H84.4v-6.1c0-4.1-3.3-7.5-7.5-7.5h-6.1v-7.8h-18v-5.2h-4.6  c-5.5,0-10.2-3.8-11.3-9.2C19.9,186.5,6.6,172.2,6.6,155v-52.7c0-17.2,13.3-31.5,30.4-32.8c1.1-5.3,5.8-9.2,11.3-9.2h4.6v-5.2h18  v-7.8H77c4.1,0,7.5-3.3,7.5-7.5v-6.1h34.5c18.2-16.6,41-25.7,64.2-25.7s46,9.1,64.2,25.7h34.4v6.1c0,4.1,3.3,7.5,7.5,7.5h6.1v7.8h18  v5.2h4.6c5.5,0,10.2,3.8,11.3,9.2c17.2,1.3,30.4,15.6,30.4,32.8V155c0,17.2-13.3,31.5-30.4,32.8c-1.1,5.4-5.8,9.2-11.3,9.2h-4.6v5.2  h-18v7.8h-6.1c-4.1,0-7.5,3.3-7.5,7.5v6.1h-34.5C229.1,240,206.3,249.2,183.1,249.2z M85.5,222.4h33.8l0.1,0.1  c18.1,16.5,40.7,25.5,63.7,25.5s45.6-9.1,63.6-25.5l0.2-0.1h33.8v-5c0-4.7,3.8-8.6,8.6-8.6h5V201h18v-5.2h5.7  c5.1,0,9.4-3.7,10.3-8.7l0.1-0.4h0.4c16.7-1.1,29.7-14.9,29.8-31.7v-52.7c0-16.8-13.1-30.7-29.8-31.7h-0.4l-0.1-0.4  c-0.8-5-5.2-8.7-10.3-8.7h-5.7v-5.2h-18v-7.8h-5c-4.7,0-8.6-3.8-8.6-8.6v-5h-33.7l-0.2-0.1c-18-16.5-40.6-25.5-63.6-25.5  s-45.6,9.1-63.6,25.5l-0.2,0.1H85.5v5c0,4.7-3.8,8.6-8.6,8.6h-5v7.8H54v5.2h-5.7c-5.1,0-9.5,3.6-10.3,8.6l-0.1,0.4h-0.4  c-16.7,1-29.8,14.9-29.8,31.7V155c0,16.8,13.1,30.7,29.8,31.7h0.4l0.1,0.4c0.8,5,5.2,8.7,10.3,8.7H54v5.2h18v7.8h5  c4.7,0,8.6,3.8,8.6,8.6L85.5,222.4z"></path>
<path class="st2" d="M59,62h18v-7.8c7.5,0,13.5-6.1,13.6-13.6h30.8C138.2,24.6,159.7,15,183.2,15s45,9.6,61.8,25.7h30.8  c0,7.5,6.1,13.5,13.5,13.6V62h18v5.2H318c3,0,5.4,2.4,5.5,5.4v3.6h3.4c14.7,0.1,26.6,12,26.7,26.7v52.6c0,14.8-12,26.7-26.8,26.8  h-3.4v3.6c0,3-2.4,5.4-5.5,5.5h-10.7v5.2h-18v7.8c-7.5,0-13.5,6.1-13.5,13.6h-30.7c-16.9,16-38.4,25.7-61.8,25.7s-45-9.6-61.8-25.7  H90.5c0-7.5-6.1-13.5-13.6-13.6v-7.8H59v-5.2H48.3c-3,0-5.4-2.4-5.4-5.5v-3.6h-3.4c-14.8,0-26.7-12-26.8-26.8V103  c0-14.8,12-26.7,26.8-26.8h3.4v-3.6c0-3,2.4-5.4,5.4-5.4H59V62z"></path>
<path class="st0" d="M183.1,244.9c-22.6,0-44.7-9.1-62.3-25.7H89.4v-1.1c0-6.9-5.6-12.4-12.4-12.5h-1.1v-7.8h-18v-5.2h-9.5  c-3.6,0-6.6-2.9-6.6-6.5v-2.5h-2.3c-15.4,0-27.9-12.5-27.9-27.9V103c0-15.4,12.5-27.9,27.9-27.9h2.3v-2.5c0-3.6,2.9-6.6,6.6-6.6h9.6  v-5.2h18V53H77c6.9,0,12.4-5.6,12.4-12.4v-1.1h31.4c17.6-16.6,39.7-25.7,62.3-25.7s44.7,9.1,62.3,25.7h31.4v1.1  c0,6.9,5.6,12.4,12.5,12.4h1.1v7.8h18v5.2h9.6c3.6,0,6.6,2.9,6.6,6.6v2.5h2.3c15.4,0,27.8,12.5,27.8,27.9v52.6  c0,15.4-12.5,27.9-27.9,27.9h-2.3v2.5c0,3.6-2.9,6.5-6.6,6.5h-9.6v5.2h-18v7.8h-1.1c-6.9,0-12.4,5.6-12.5,12.5v1.1h-31.4  C227.8,235.8,205.7,244.9,183.1,244.9z M91.6,217h30.1l0.3,0.3c17.2,16.4,38.9,25.4,61.1,25.4s43.9-9,61.1-25.4l0.3-0.3h30.1  c0.6-7.2,6.3-13,13.5-13.5v-7.8h18v-5.2h11.8c2.4,0,4.3-1.9,4.3-4.3v-4.7h4.5c14.2,0,25.7-11.5,25.7-25.7V103  c0-14.2-11.5-25.7-25.7-25.7h-4.5v-4.7c0-2.4-1.9-4.3-4.3-4.3h-11.8V63h-18v-7.8c-7.2-0.6-13-6.3-13.5-13.5h-30.1l-0.3-0.3  C227,25.1,205.3,16,183.1,16s-43.9,9-61.1,25.4l-0.3,0.3H91.6c-0.6,7.2-6.3,13-13.5,13.5V63h-18v5.2H48.3c-2.4,0-4.3,1.9-4.3,4.3  v4.7h-4.5c-14.2,0-25.7,11.5-25.7,25.7v52.6c0,14.2,11.5,25.7,25.7,25.7H44v4.7c0,2.4,1.9,4.3,4.3,4.3h11.8v5.2h18v7.8  C85.3,204,91,209.8,91.6,217z"></path>
<path class="st1" d="M183.1,238.2c-21.4,0-41.4-8.4-58-24.1l-1.6-1.5H95.2c-1.9-6.1-6.6-10.9-12.7-12.7v-8.6h-18V186H48.4v-9.1h-8.9  c-11.7,0-21.2-9.5-21.2-21.2V103c0-11.7,9.5-21.2,21.2-21.2h8.9v-9.1h16.1v-5.2h18v-8.6c6.1-1.9,10.9-6.6,12.7-12.7h28.3l1.6-1.5  c16.6-15.8,36.7-24.1,58-24.1s41.4,8.3,58,24.1l1.6,1.5H271c1.9,6.1,6.6,10.9,12.7,12.7v8.6h18v5.2h16.1v9.1h8.9  c11.7,0,21.2,9.5,21.2,21.2v52.6c0,11.7-9.5,21.2-21.2,21.2h-8.9v9.1h-16.1v5.2h-18v8.6c-6.1,1.9-10.8,6.6-12.7,12.7h-28.3l-1.6,1.5  C224.8,229.6,204.1,238.2,183.1,238.2z"></path>
<path class="st0" d="M183.1,238.8c-21.5,0-41.7-8.4-58.4-24.3l-1.4-1.4H94.8l-0.1-0.4c-1.8-5.9-6.4-10.6-12.4-12.4l-0.4-0.1v-8.5H64  v-5.2H47.8v-9.1h-8.4c-12,0-21.8-9.8-21.8-21.8V103c0-12,9.8-21.8,21.8-21.8h8.4v-9.1H64v-5.2h18v-8.5l0.4-0.1  c5.9-1.8,10.5-6.4,12.3-12.3l0.1-0.4h28.4l1.4-1.4c16.7-15.9,36.9-24.3,58.4-24.3s41.7,8.4,58.4,24.3l1.5,1.4h28.4l0.1,0.4  c1.8,5.9,6.4,10.6,12.4,12.4l0.4,0.1v8.5h18v5.2h16.1v9.1h8.4c12,0,21.8,9.8,21.8,21.8v52.7c0,12-9.8,21.8-21.8,21.8h-8.4v9.1h-16.1  v5.2h-18v8.5l-0.4,0.1c-5.9,1.8-10.6,6.4-12.4,12.4l-0.1,0.4H243l-1.5,1.4C225,230.1,204.3,238.8,183.1,238.8z M95.6,212h28.1  l1.8,1.7c16.5,15.7,36.4,24,57.6,24c20.9,0,41.4-8.5,57.6-24l1.8-1.7h28.1c1.9-6,6.6-10.6,12.6-12.6v-8.8h18v-5.2h16.1v-9.1h9.5  c11.4,0,20.7-9.3,20.7-20.7V103c0-11.4-9.3-20.7-20.7-20.7h-9.5v-9.1h-16.1V68h-18v-8.8c-6-1.9-10.6-6.6-12.6-12.6h-28.1l-1.8-1.7  c-16.5-15.7-36.4-24-57.6-24s-41.1,8.3-57.6,24l-1.8,1.7H95.6c-1.9,6-6.6,10.7-12.6,12.6V68H65v5.2H48.9v9.1h-9.5  c-11.4,0-20.7,9.3-20.7,20.7v52.6c0,11.4,9.3,20.7,20.7,20.7h9.5v9.1h16.1v5.2h18v8.8C89,201.3,93.7,206,95.6,212z"></path>
<path class="st0" d="M176.7,47.7c0,0.5-0.2,0.7-0.6,0.7s-0.7-0.4-0.9-1.1s-0.3-1.4-0.5-2c-0.5-0.9-1.1-1.8-1.8-2.6  c-0.4-0.5-0.6-0.7-0.7-0.7c-0.2,0-0.4,0.1-0.6,0.1c-0.2,0.1-0.5,0.1-0.7,0.1c-0.3,0-0.7-0.3-1-0.8c-0.3-0.5-0.5-1-0.5-1.6  c0-0.6,0.2-1.2,0.7-1.6c0.5-0.4,1.1-0.7,1.7-0.7c0.7,0,1,0.3,1,0.9c0,0.1,0,0.2,0,0.3c0,0.1,0,0.2,0,0.3c0.1,0.6,0.3,1.1,0.7,1.6  c0.6,0.9,1.2,1.9,1.8,2.8C175.9,44.7,176.5,46.2,176.7,47.7z M191.9,49.5c0,0.5-0.1,1-0.3,1.4c-0.1,0.3-0.2,0.7-0.5,0.9  c-1.3,0.2-2.5,0.3-3.8,0.2h-1c-0.5,0-0.9,0-1.2,0c-0.7,0-2.1,0-4.3,0.1s-4,0.1-5.4,0.1c-1.1,0-1.7-0.4-1.7-1.4  c0-0.7,0.2-1.1,0.5-1.3c0.5-0.2,1-0.3,1.6-0.2h0.3l1.5,0.1c1.2,0.1,2.5,0.1,3.8,0.1c1.9,0.1,4,0.1,6.2,0.1c0.1,0,1-0.1,2.9-0.4  l1-0.1C191.7,49.2,191.9,49.4,191.9,49.5L191.9,49.5z M180.8,47.8c0,0.4-0.3,0.6-0.8,0.6c-0.4,0-0.6-0.3-0.8-0.8  c0-0.1-0.2-1-0.5-2.6c-0.3-1.7-0.6-3.3-1.1-4.9c-0.1-0.3-0.3-0.6-0.5-0.9c-0.2-0.2-0.3-0.5-0.4-0.7c0-0.3-0.1-0.5-0.1-0.8  s-0.3-0.5-0.6-0.6c-0.9-0.4-1.4-0.6-1.5-0.6c-0.3-0.3-0.4-0.7-0.4-1.1c0-0.7,0.2-1.5,0.6-2.1c0.3-0.5,0.8-0.8,1.4-0.8  c0.6,0,1.1,0.2,1.6,0.5c0.4,0.3,0.7,0.7,0.7,1.2c0,0.2-0.1,0.4-0.2,0.5c-0.2,0.2-0.3,0.5-0.4,0.8C179.7,43.3,180.8,47.3,180.8,47.8  L180.8,47.8z M184.9,33.5c-0.1,0.3-0.2,0.6-0.4,0.8c-0.3,0.3-0.5,0.7-0.7,1.2c-0.3,1.6-0.4,3.3-0.3,4.9c0,1.4,0.1,2.8,0.3,4.2  c0.2,1.5,0.3,2.4,0.3,2.7c0,0.3-0.1,0.5-0.3,0.7c-0.1,0.2-0.4,0.3-0.6,0.3c-0.1,0-0.3-0.1-0.4-0.4c-0.2-0.3-0.2-0.6-0.2-0.9v-6.6  c0-0.1-0.2-1.7-0.5-4.9c-0.9-0.7-1.4-1.3-1.4-1.9c0-0.6,0.2-1.2,0.6-1.7c0.3-0.5,0.8-0.8,1.4-0.8c0.6,0,1.2,0.3,1.5,0.8  C184.6,32.3,184.8,32.9,184.9,33.5L184.9,33.5z M191.1,34.1c0,2-0.7,3-2.1,3.1c-0.4,1.5-1,3.4-1.7,5.6c-0.4,1-0.6,2-0.8,3  c0,0.1,0,0.2,0,0.3v0.3c0,0.5,0,0.9-0.1,1.4c-0.1,0.3-0.5,0.4-1,0.4s-0.6-0.2-0.6-0.6c0,0.1,0.4-1.6,1.2-5.2c0.3-1.3,0.6-2.6,1-4.1  c0.2-0.6,0.3-1.2,0.4-1.8c-0.1-0.3-0.2-0.6-0.3-0.9c-0.2-0.3-0.3-0.6-0.3-1c-0.2-1.1,0.6-2.1,1.7-2.3c0.2,0,0.4,0,0.6,0  C190.5,32.4,191.1,32.9,191.1,34.1L191.1,34.1z M196.3,38.9c0,0.5-0.1,1-0.4,1.5c-0.3,0.4-0.7,0.6-1.2,0.6c-0.2,0-0.4-0.1-0.6-0.1  c-0.2-0.1-0.3-0.1-0.5-0.1c-0.4,0-1.1,1.3-2,3.7s-1.6,3.8-1.9,3.8s-0.5-0.2-0.6-0.6c0.2-1.4,0.7-2.8,1.2-4.2  c0.4-0.9,0.8-1.7,1.3-2.5c0.3-0.4,0.5-0.8,0.6-1.2c0-0.3-0.1-0.6-0.3-0.9c-0.1-0.2-0.2-0.5-0.3-0.8c0-0.8,0.9-1.2,2.6-1.2  c0.6,0,1.1,0.3,1.4,0.7C196.1,37.7,196.3,38.3,196.3,38.9L196.3,38.9z M181.5,57.7c-0.9-0.9-0.8-2.3,0.1-3.2  c0.9-0.9,2.3-0.8,3.2,0.1s0.8,2.3-0.1,3.2c-0.4,0.4-1,0.6-1.6,0.6C182.5,58.4,181.9,58.2,181.5,57.7L181.5,57.7z"></path>
<path class="st0" d="M205.3,71c-0.3-2.2-1.7-4.2-3.6-5.3c-1-0.6-2.1-1-3.2-1.3c-0.4-0.7-0.9-1.3-1.5-1.8c-0.8-0.7-1.8-1.2-2.9-1.5  c-1.2-0.3-2.4-0.5-3.6-0.5c-1.8-0.1-3.6,0.3-5.1,1.1c-0.8,0.5-1.6,1.1-2.2,1.8c-0.6-0.7-1.4-1.3-2.2-1.8c-1.6-0.8-3.4-1.2-5.1-1.1  c-1.2,0-2.4,0.2-3.6,0.5c-1.1,0.3-2.1,0.8-2.9,1.5c-0.6,0.5-1.1,1.1-1.5,1.8c-1.1,0.3-2.2,0.7-3.2,1.3c-2,1.1-3.3,3.1-3.6,5.3  c-0.2,1.3-0.1,2.6,0.3,3.9c0.3,1,0.6,2,1.1,2.9c0.5,0.9,1.1,1.7,1.8,2.4c0.8,0.8,1.6,1.5,2.5,2.1c1,0.7,2.1,1.4,3.3,2.1l2.6,1.5  c1,0.6,2,1.2,3,1.8s2,1.2,2.9,1.9l0.5,0.3h-2c-2.3,0-4.4,0-6.1-0.1c-1.8-0.1-3.4-0.2-4.7-0.3c0.3,1.2,0.3,2.4,0,3.6  c1.7-0.1,3.5-0.1,5.1-0.2c1.2,0,2.5-0.1,3.8-0.1c-1.7,0.4-3.2,0.8-4.5,1.1c-1.8,0.4-3.3,0.7-4.6,0.9c0.3,0.5,0.5,1.1,0.7,1.7  c0.1,0.6,0.2,1.2,0.2,1.8l4.9-1.5c1.6-0.5,3.3-0.9,5-1.4s3.4-0.9,5-1.2l1.5-0.3l1.5,0.3c1.7,0.4,3.3,0.8,5,1.2  c1.7,0.4,3.3,0.9,5,1.4l4.9,1.5c0-0.6,0.1-1.2,0.2-1.8c0.2-0.6,0.4-1.1,0.7-1.7c-1.3-0.3-2.9-0.6-4.6-0.9c-1.4-0.3-2.9-0.6-4.5-1.1  c1.3,0,2.5,0,3.8,0.1c1.7,0,3.4,0.1,5.1,0.2c-0.3-1.2-0.3-2.4,0-3.6c-1.4,0.1-2.9,0.2-4.7,0.3s-3.8,0.1-6.1,0.1h-2l0.5-0.3  c0.9-0.6,1.9-1.2,2.9-1.9s2-1.2,3-1.8l2.6-1.5c1.2-0.7,2.3-1.5,3.3-2.1c0.9-0.6,1.8-1.4,2.5-2.1c0.7-0.7,1.3-1.5,1.8-2.4  c0.5-0.9,0.9-1.9,1.1-2.9C205.5,73.6,205.6,72.3,205.3,71z M176.4,62.3c0.9,0,1.8,0.2,2.6,0.6c0.7,0.3,1.3,0.8,1.8,1.4  c0.5,0.5,0.8,1.1,1.1,1.7c0.3,0.6,1.1,3,1.1,3s0.9-2.4,1.1-3c0.3-0.6,0.6-1.2,1.1-1.7c0.5-0.6,1.1-1,1.8-1.4  c0.8-0.4,1.7-0.6,2.6-0.6c1.4,0,2.8,0.6,3.8,1.7l0,0l-0.5,0.1c-1.7,0.5-3.2,1.3-4.5,2.6l1,2.7h0.4c0.3-0.5,0.6-0.9,1-1.4  c0.4-0.5,0.9-1,1.5-1.4c0.6-0.4,1.4-0.7,2.1-0.8h0.1c0.4,1.1,0.6,2.3,0.6,3.5c0,1.5-0.2,3.1-0.5,4.5c-0.5,1.6-1.2,3.1-2.2,4.5  c-1.4,2-3,4-4.7,5.8c-1.3,1.4-2.8,3-4.6,4.8c-1.8-1.8-3.3-3.4-4.6-4.8c-1.7-1.8-3.3-3.7-4.7-5.8c-1-1.4-1.7-2.9-2.2-4.5  c-0.4-1.5-0.6-3-0.6-4.5c0-1.2,0.2-2.4,0.6-3.5h0.1c0.7,0.1,1.5,0.4,2.1,0.8c0.6,0.4,1.1,0.8,1.5,1.4c0.4,0.5,0.7,0.9,0.9,1.4h0.4  l1-2.7c-1.2-1.2-2.8-2.1-4.5-2.6c-0.2,0-0.4-0.1-0.5-0.1h0C173.6,63,174.9,62.3,176.4,62.3L176.4,62.3z M176.5,86.4  c-2.1-1.3-4.1-2.8-6-4.4c-1.3-1.1-2.4-2.4-3.3-3.8c-0.7-1.3-1.3-2.8-1.7-4.2c-0.6-2.3-0.5-4.1,0.2-5.5c0.3-0.5,0.6-0.9,1-1.3  c-0.1,0.6-0.2,1.2-0.2,1.9c0,1,0.1,2.1,0.4,3.1c0.3,1,0.6,1.9,1.1,2.8c0.5,1,1.2,1.9,1.9,2.7c0.8,0.9,1.7,1.9,2.6,2.9l2.1,2.1  c0.8,0.8,1.6,1.6,2.4,2.5s1.6,1.7,2.3,2.5c0.4,0.5,0.8,1,1.2,1.4C179.1,88.1,177.7,87.2,176.5,86.4L176.5,86.4z M200.7,74  c-0.4,1.5-0.9,2.9-1.7,4.2c-0.9,1.4-2,2.7-3.3,3.8c-1.9,1.6-3.9,3.1-6,4.4c-1.2,0.8-2.6,1.6-4.2,2.6c0.4-0.5,0.8-0.9,1.2-1.4  c0.7-0.8,1.5-1.7,2.3-2.5s1.6-1.7,2.4-2.5l2.1-2.1c1-1,1.9-2,2.6-2.9c0.7-0.8,1.4-1.8,1.9-2.7c0.5-0.9,0.9-1.8,1.1-2.8  c0.3-1,0.4-2,0.4-3.1c0-0.6,0-1.2-0.1-1.9c0.4,0.4,0.7,0.8,1,1.3C201.2,69.9,201.3,71.7,200.7,74z"></path>
<path class="st0" d="M133.3,98.3c-0.3-0.6-0.7-1.2-0.9-1.8c-0.3-0.8-0.4-1.6-0.4-2.4c0-0.9,0.1-1.8,0.4-2.6c0.3-0.7,0.7-1.3,1.2-1.9  c0.5-0.5,1.1-0.9,1.7-1.2c0.7-0.3,1.4-0.4,2.1-0.4c0.9,0,1.8,0.2,2.6,0.5c0.8,0.4,1.5,0.8,2.2,1.4c0.7,0.5,1.3,1.1,1.9,1.8  c0.6,0.6,1.2,1.2,1.8,1.8c0.6,0.5,1.2,1,1.8,1.3c0.6,0.4,1.3,0.5,2,0.5c0.6,0,1.1-0.2,1.6-0.5c0.5-0.3,0.8-1,0.8-1.6  c0-0.3,0-0.6-0.1-0.9c-0.1-0.2-0.2-0.4-0.2-0.5l0.2-0.2c0.2,0.1,0.3,0.2,0.5,0.3c0.2,0.1,0.4,0.2,0.6,0.2c0.2,0.5,0.2,0.9,0.2,1.4  c0,0.4-0.1,0.8-0.2,1.2c-0.2,0.5-0.4,1-0.8,1.4c-0.4,0.5-0.8,0.9-1.4,1.2c-0.7,0.3-1.4,0.5-2.1,0.5c-0.9,0-1.7-0.2-2.5-0.5  c-0.7-0.3-1.4-0.8-2.1-1.3c-0.6-0.5-1.2-1.1-1.8-1.7c-0.6-0.6-1.1-1.2-1.7-1.7c-0.6-0.5-1.2-1-1.8-1.3c-0.6-0.3-1.3-0.5-2.1-0.5  c-0.5,0-1,0.1-1.4,0.3c-0.4,0.2-0.8,0.5-1.1,0.8c-0.3,0.3-0.5,0.7-0.6,1.1c-0.2,0.4-0.2,0.8-0.2,1.3c0,0.7,0.2,1.4,0.5,2  c0.3,0.6,0.8,1.2,1.4,1.6L133.3,98.3z M158.5,96.5c-1.3,0-2.3-1-2.3-2.3c0-1.3,1-2.3,2.3-2.3c0.6,0,1.2,0.2,1.6,0.7  c0.9,0.9,0.9,2.3,0,3.2c0,0,0,0,0,0C159.8,96.2,159.2,96.5,158.5,96.5L158.5,96.5z"></path>
<path class="st0" d="M230.9,98.1c0.5-0.5,1-1,1.3-1.6c0.3-0.6,0.5-1.3,0.5-2c0-0.4-0.1-0.9-0.2-1.3c-0.1-0.4-0.4-0.8-0.6-1.1  c-0.3-0.3-0.7-0.6-1.1-0.8c-0.4-0.2-0.9-0.3-1.4-0.3c-0.7,0-1.4,0.2-2,0.5c-0.7,0.4-1.3,0.8-1.8,1.3c-0.6,0.5-1.2,1.1-1.7,1.7  c-0.6,0.6-1.2,1.2-1.8,1.7c-0.6,0.5-1.3,1-2.1,1.3c-0.8,0.3-1.6,0.5-2.5,0.5c-0.7,0-1.5-0.1-2.1-0.5c-0.5-0.3-1-0.7-1.4-1.2  c-0.3-0.4-0.6-0.9-0.8-1.4c-0.1-0.4-0.2-0.8-0.2-1.2c0-0.5,0-1,0.2-1.4c0.2,0,0.4-0.1,0.6-0.2c0.2-0.1,0.4-0.2,0.5-0.3l0.2,0.2  c0,0.1-0.1,0.3-0.2,0.5c-0.1,0.3-0.1,0.6-0.1,0.9c0,0.6,0.3,1.2,0.8,1.6c0.5,0.3,1,0.5,1.6,0.5c0.7,0,1.4-0.2,2-0.5  c0.7-0.4,1.3-0.8,1.8-1.3c0.6-0.5,1.2-1.1,1.8-1.8c0.6-0.6,1.2-1.2,1.9-1.8c0.7-0.5,1.4-1,2.2-1.4c0.8-0.4,1.7-0.5,2.6-0.5  c0.7,0,1.4,0.1,2.1,0.4c0.6,0.3,1.2,0.7,1.7,1.2c0.5,0.5,0.9,1.2,1.2,1.9c0.3,0.8,0.5,1.7,0.4,2.6c0,0.8-0.1,1.6-0.4,2.4  c-0.3,0.6-0.6,1.2-0.9,1.8L230.9,98.1z M206,95.8c-0.9-0.9-0.9-2.3-0.1-3.2c0,0,0,0,0.1-0.1c0.4-0.4,1-0.7,1.6-0.7  c1.3,0,2.3,1,2.3,2.3c0,1.3-1,2.3-2.3,2.3C207,96.5,206.4,96.2,206,95.8z"></path>
<circle class="st0" cx="111.6" cy="183.1" r="1.5"></circle>
<circle class="st0" cx="147.4" cy="183.1" r="1.5"></circle>
<circle class="st0" cx="165.2" cy="183.1" r="1.5"></circle>
<circle class="st0" cx="129.5" cy="183.1" r="1.5"></circle>
<path class="st0" d="M184.6,183.1c0,0.8-0.7,1.5-1.5,1.5s-1.5-0.7-1.5-1.5s0.7-1.5,1.5-1.5l0,0C183.9,181.5,184.6,182.2,184.6,183.1  C184.6,183.1,184.6,183.1,184.6,183.1z"></path>
<circle class="st0" cx="201" cy="183.1" r="1.5"></circle>
<circle class="st0" cx="236.7" cy="183.1" r="1.5"></circle>
<circle class="st0" cx="218.9" cy="183.1" r="1.5"></circle>
<circle class="st0" cx="254.6" cy="183.1" r="1.5"></circle>
<path class="st0" d="M116,196.9c0-0.5,0-1,0-1.5s0-1-0.1-1.5h0.3h0.3h0.3h0.3c0,0.5-0.1,1-0.1,1.5s0,1,0,1.5v2c0,0.5,0,1,0,1.5  s0,1,0.1,1.5h-0.3c-0.1,0-0.2,0-0.3,0c-0.1,0-0.2,0-0.3,0h-0.3c0-0.5,0-1,0.1-1.5s0-1,0-1.5v-1h-1.2h-2.4h-1.2v1c0,0.5,0,1,0,1.5  l0.1,1.5H111c-0.1,0-0.2,0-0.3,0c-0.1,0-0.2,0-0.3,0h-0.3l0.1-1.5c0-0.5,0-1,0-1.5v-2c0-0.5,0-1,0-1.5l-0.1-1.5h0.3h0.3h0.3h0.3  l-0.1,1.5c0,0.5,0,1,0,1.5v0.4h1.2h2.4h1.2V196.9z"></path>
<path class="st0" d="M122.4,197.9c0-0.6,0.1-1.2,0.3-1.7c0.2-0.5,0.5-0.9,0.9-1.3c0.4-0.4,0.9-0.6,1.4-0.8c1.1-0.4,2.3-0.4,3.5,0  c0.5,0.2,1,0.4,1.4,0.8c0.4,0.4,0.7,0.8,0.9,1.3c0.4,1.1,0.4,2.4,0,3.5c-0.2,0.5-0.5,0.9-0.9,1.3c-0.4,0.4-0.9,0.6-1.4,0.8  c-1.1,0.4-2.3,0.4-3.5,0c-0.5-0.2-1-0.4-1.4-0.8c-0.4-0.4-0.7-0.8-0.9-1.3C122.5,199.1,122.4,198.5,122.4,197.9z M129.9,197.9  c0-0.6-0.1-1.1-0.2-1.6c-0.1-0.4-0.4-0.8-0.7-1.1c-0.3-0.3-0.6-0.5-1-0.7c-0.4-0.1-0.8-0.2-1.3-0.2c-0.4,0-0.8,0.1-1.3,0.2  c-0.4,0.1-0.7,0.4-1,0.7c-0.3,0.3-0.5,0.7-0.7,1.1c-0.3,1.1-0.3,2.2,0,3.3c0.1,0.4,0.4,0.8,0.7,1.1c0.3,0.3,0.6,0.5,1,0.7  c0.4,0.2,0.8,0.2,1.3,0.2c0.4,0,0.9-0.1,1.3-0.2c0.4-0.1,0.7-0.4,1-0.7c0.3-0.3,0.5-0.7,0.7-1.1C129.8,199,129.9,198.5,129.9,197.9  L129.9,197.9z"></path>
<path class="st0" d="M137.6,193.8c0.5,1.1,1.1,2.1,1.6,3.2s1.1,2.1,1.7,3.1c0.1-0.1,0.2-0.4,0.3-0.6l0.5-0.9l0.6-1.1  c0.2-0.4,0.4-0.8,0.7-1.2l0.7-1.2c0.2-0.4,0.4-0.8,0.6-1.1h0.1c0.1,0.7,0.2,1.4,0.2,2.1s0.1,1.4,0.2,2s0.1,1.3,0.2,2s0.2,1.3,0.3,2  h-0.3c-0.2,0-0.4,0-0.5,0h-0.3c-0.1-1-0.2-2-0.3-3s-0.2-1.9-0.3-2.9l0,0c-0.5,1-1,1.9-1.6,2.9s-1,1.9-1.4,3h-0.1  c-0.4-1-0.9-1.9-1.4-2.9s-1-2-1.5-3l0,0c-0.1,0.5-0.1,1-0.2,1.5s-0.1,1.1-0.2,1.6s-0.1,1-0.1,1.5s-0.1,0.9-0.1,1.2H137  c-0.1,0-0.1,0-0.2,0c-0.1,0-0.1,0-0.2,0h-0.2c0.1-0.6,0.2-1.3,0.3-2s0.2-1.4,0.3-2.1l0.3-2.1c0.1-0.7,0.2-1.3,0.2-1.9L137.6,193.8z"></path>
<path class="st0" d="M151,196.9c0-0.5,0-1,0-1.5s0-1-0.1-1.5h1h1h1h1c0,0.1,0,0.2,0,0.4c0,0.1,0,0.2,0,0.3l-0.7,0l-0.6,0h-0.7h-1  c0,0.3,0,0.5,0,0.7s0,0.5,0,0.8s0,0.6,0,0.9s0,0.5,0,0.6c0.7,0,1.2,0,1.6,0l1.1-0.1c0,0.1,0,0.2,0,0.4c0,0.1,0,0.2,0,0.3L154,198  h-0.8h-0.8h-0.6c0,0.1,0,0.1,0,0.2s0,0.2,0,0.3v1.1c0,0.4,0,0.8,0,1.1s0,0.5,0,0.6h1.6h0.8c0.2,0,0.4,0,0.6-0.1c0,0.1,0,0.1,0,0.2  v0.2c0,0.1,0,0.2,0,0.3h-1c-0.3,0-0.7,0-1,0s-0.7,0-1,0h-1.1c0-0.5,0.1-1,0.1-1.5s0-1,0-1.5L151,196.9z"></path>
<path class="st0" d="M161.5,193.8c0.5,1.1,1.1,2.1,1.6,3.2s1.1,2.1,1.7,3.1l0.3-0.6l0.5-0.9l0.6-1.1l0.7-1.2l0.7-1.2l0.6-1.1h0.1  c0.1,0.7,0.2,1.4,0.2,2.1s0.1,1.4,0.2,2s0.1,1.3,0.2,2s0.2,1.3,0.3,2H169c-0.1,0-0.2,0-0.3,0c-0.1,0-0.2,0-0.3,0h-0.3  c-0.1-1-0.2-2-0.3-3s-0.2-1.9-0.3-2.9l0,0c-0.5,1-1,1.9-1.5,2.9s-1,1.9-1.5,3h-0.1c-0.5-1-0.9-1.9-1.4-2.9s-1-2-1.5-3l0,0  c0,0.5-0.1,1-0.2,1.5s-0.1,1.1-0.2,1.6s-0.1,1-0.1,1.5s-0.1,0.9-0.1,1.2h-0.2c-0.1,0-0.1,0-0.2,0c-0.1,0-0.1,0-0.2,0h-0.2  c0.1-0.6,0.2-1.3,0.3-2s0.2-1.4,0.3-2.1s0.2-1.4,0.3-2.1s0.2-1.3,0.2-1.9L161.5,193.8z"></path>
<path class="st0" d="M178.2,193.8l0.6,1.4l0.6,1.6l0.7,1.6c0.2,0.5,0.4,1,0.6,1.5s0.4,0.9,0.5,1.2l0.4,0.8h-0.3c-0.2,0-0.4,0-0.6,0  h-0.3c-0.1-0.2-0.1-0.5-0.2-0.7c-0.1-0.2-0.2-0.5-0.3-0.8c-0.1-0.3-0.2-0.5-0.3-0.8s-0.2-0.5-0.3-0.8h-0.7H177h-0.7  c-0.3,0.6-0.5,1.2-0.7,1.7s-0.4,1-0.5,1.4H175c-0.1,0-0.3,0-0.4,0h-0.2c0.6-1.4,1.2-2.7,1.8-4s1.2-2.7,1.8-4L178.2,193.8z   M177.8,195.4l-1.3,2.9h1.9h0.6L177.8,195.4z"></path>
<path class="st0" d="M187,196.9c0-0.5,0-1,0-1.5s0-1-0.1-1.5h0.9h0.9h0.9c0.3,0,0.6,0,0.9,0c0.6,0,1.2,0.1,1.7,0.3  c0.4,0.2,0.8,0.4,1.2,0.8c0.3,0.3,0.5,0.7,0.7,1.2c0.1,0.5,0.2,1,0.2,1.6c0,0.7-0.1,1.3-0.4,1.9c-0.2,0.5-0.6,0.9-1,1.3  c-0.4,0.3-0.9,0.5-1.4,0.7c-0.5,0.1-0.9,0.2-1.4,0.2c-0.3,0-0.5,0-0.8,0s-0.5,0-0.8,0s-0.5,0-0.8,0h-0.8c0-0.5,0-1,0.1-1.5  s0-1,0-1.5L187,196.9z M187.9,198.9c0,0.8,0,1.6,0.1,2.4c0.2,0,0.4,0.1,0.7,0.1c0.3,0,0.6,0,0.8,0c0.4,0,0.8-0.1,1.3-0.1  c0.4-0.1,0.8-0.3,1.1-0.6c0.4-0.3,0.6-0.7,0.8-1.1c0.2-0.6,0.3-1.2,0.3-1.9c0-0.6-0.1-1.1-0.3-1.6c-0.1-0.4-0.4-0.7-0.7-1  c-0.3-0.2-0.6-0.4-1-0.5c-0.4-0.1-0.9-0.2-1.3-0.1c-0.4,0-0.7,0-1,0l-0.8,0.1c0,0.4,0,0.8,0,1.1s0,0.8,0,1.2L187.9,198.9z"></path>
<path class="st0" d="M199.6,196.9c0-0.5,0-1,0-1.5l-0.1-1.5h1h1h1h1c0,0.1,0,0.2,0,0.4c0,0.1,0,0.2,0,0.3l-0.7,0l-0.6,0h-0.7h-1  c0,0.3,0,0.5,0,0.7s0,0.5,0,0.8s0,0.6,0,0.9v0.6c0.7,0,1.2,0,1.6,0l1.1-0.1c0,0.1,0,0.2,0,0.4c0,0.1,0,0.2,0,0.3l-0.7,0h-0.8h-0.7  h-0.6v0.2c0,0.1,0,0.2,0,0.3v1.1c0,0.4,0,0.8,0,1.1s0,0.5,0,0.6h1.7h0.8c0.2,0,0.4,0,0.6-0.1c0,0.1,0,0.1,0,0.2c0,0.1,0,0.1,0,0.2  c0,0.1,0,0.2,0,0.3h-1c-0.3,0-0.7,0-1,0s-0.7,0-1,0h-1c0-0.5,0-1,0.1-1.5c0-0.5,0-1,0-1.5V196.9z"></path>
<path class="st0" d="M223.1,201.4c-0.1,0.1-0.2,0.1-0.3,0.2c-0.2,0.1-0.4,0.2-0.5,0.2c-0.2,0.1-0.5,0.1-0.7,0.2  c-0.3,0-0.5,0.1-0.8,0.1c-0.6,0-1.1-0.1-1.7-0.3c-1-0.3-1.8-1.1-2.2-2.1c-0.4-1.1-0.4-2.4,0-3.5c0.2-0.5,0.5-0.9,0.9-1.3  c0.4-0.4,0.9-0.6,1.4-0.8c0.6-0.2,1.1-0.3,1.7-0.3c0.5,0,0.9,0,1.4,0.2c0.4,0.1,0.8,0.2,1.1,0.4c-0.1,0.1-0.1,0.3-0.1,0.4  c0,0.2-0.1,0.3-0.1,0.5H223c-0.1-0.1-0.2-0.2-0.3-0.3c-0.1-0.1-0.3-0.2-0.5-0.3c-0.2-0.1-0.4-0.2-0.6-0.3c-0.2-0.1-0.5-0.1-0.8-0.1  c-0.4,0-0.8,0.1-1.3,0.2c-0.4,0.1-0.7,0.4-1,0.7c-0.3,0.3-0.5,0.7-0.7,1.1c-0.3,1.1-0.3,2.2,0,3.3c0.1,0.4,0.4,0.8,0.7,1.1  c0.3,0.3,0.6,0.5,1,0.7c0.4,0.2,0.8,0.2,1.3,0.2c0.3,0,0.5,0,0.8-0.1c0.2-0.1,0.4-0.1,0.6-0.3c0.2-0.1,0.4-0.2,0.5-0.3l0.4-0.3l0,0  L223.1,201.4z"></path>
<path class="st0" d="M232,193.8c0.2,0.5,0.4,0.9,0.6,1.4l0.6,1.6l0.7,1.6c0.2,0.5,0.4,1,0.6,1.5s0.4,0.9,0.5,1.2l0.4,0.8h-0.3  c-0.1,0-0.2,0-0.3,0c-0.1,0-0.2,0-0.3,0h-0.3c-0.1-0.2-0.1-0.4-0.2-0.7s-0.2-0.5-0.3-0.8s-0.2-0.5-0.3-0.8s-0.2-0.5-0.3-0.8h-0.8  h-1.5h-0.7c-0.3,0.6-0.5,1.2-0.7,1.7s-0.3,1-0.4,1.4h-0.2c-0.1,0-0.1,0-0.2,0c-0.1,0-0.1,0-0.2,0h-0.2c0.6-1.4,1.2-2.7,1.8-4  s1.2-2.7,1.8-4L232,193.8z M231.6,195.4l-1.2,2.9h1.9h0.6L231.6,195.4z"></path>
<path class="st0" d="M240.7,201.9l0.1-1.5c0-0.5,0-1,0-1.5v-2c0-0.5,0-1,0-1.5l-0.1-1.5h0.3h0.3h0.3h0.3c0,0.5,0,1-0.1,1.5  s0,1,0,1.5v0.6c0,0.1,0,0.1,0.1,0.1s0.1,0,0.2-0.1c0.3-0.2,0.5-0.5,0.8-0.8s0.6-0.6,0.9-0.9s0.6-0.6,0.9-1s0.6-0.6,0.8-1  c0.2,0,0.3,0.1,0.5,0.1h0.3h0.3c-0.3,0.2-0.6,0.5-0.9,0.8l-1,1c-0.3,0.3-0.7,0.6-1,1s-0.6,0.6-0.8,0.8c0.6,0.7,1.2,1.4,1.9,2.1  l1.9,2.2h-0.3c-0.1,0-0.2,0-0.4,0c-0.1,0-0.2,0-0.3,0h-0.3c-0.3-0.3-0.6-0.7-0.9-1.1l-1-1.2c-0.3-0.4-0.6-0.7-0.9-1  s-0.5-0.5-0.6-0.6s-0.1-0.1-0.1-0.1s0,0,0,0.1v1c0,0.5,0,1,0,1.5s0,1,0.1,1.5h-0.3c-0.1,0-0.2,0-0.3,0c-0.1,0-0.2,0-0.3,0  L240.7,201.9z"></path>
<path class="st0" d="M252,196.9c0-0.5,0-1,0-1.5s0-1-0.1-1.5h1h1h1h1c0,0.1,0,0.2,0,0.4c0,0.1,0,0.2,0,0.3l-0.7,0l-0.6,0h-0.7h-1  c0,0.3,0,0.5,0,0.7s0,0.5,0,0.8s0,0.6,0,0.9s0,0.5,0,0.6c0.7,0,1.2,0,1.6,0l1.1-0.1c0,0.1,0,0.2,0,0.4c0,0.1,0,0.2,0,0.3l-0.7,0  h-0.8h-0.8H253c0,0.1,0,0.1,0,0.2s0,0.2,0,0.3v1.1c0,0.4,0,0.8,0,1.1s0,0.5,0,0.6h1.6h0.8c0.2,0,0.4,0,0.6-0.1c0,0.1,0,0.1,0,0.2  v0.2c0,0.1,0,0.2,0,0.3h-1c-0.3,0-0.7,0-1,0s-0.7,0-1,0h-1c0-0.5,0-1,0.1-1.5s0-1,0-1.5L252,196.9z"></path>
<path class="st0" d="M184.9,121.2l-1.3,16.8c-3.4,7.3-8.3,10.9-14.9,10.9c-8.3,0-13.8-3.7-16.5-11.1l-0.1-0.8l2.2-28.7  c0-0.4-0.1-0.7-0.4-1.1l-0.8-0.7l-1-0.4h-1.1l0.2-2.9h2.5c2.5,0,3.7,1.6,3.7,4.8l-2.1,28.6c0.8,2.8,2.7,5.1,5.3,6.4  c2.5,1.5,5.4,2.3,8.3,2.3c4.6,0,8.5-2.8,11.9-8.5l1-14.9c-0.3-2.1-1.5-3.2-3.5-3.2h-1.4c-0.7,0.1-1.4,0.5-2,1  c-0.7,0.7-1.2,1.5-1.7,2.4c-0.2,0.8-0.8,1.5-1.5,1.9c-0.1-0.1-0.3-0.2-0.4-0.3c-0.4-0.3-0.7-0.7-1-1.1c-0.7-2.5-2.3-3.8-4.8-3.8  c-1.3,0-2.4,1.1-3.5,3.3l-0.8,10.1c-0.1,0.7,0.4,1.3,1.1,1.4c0.1,0,0.1,0,0.2,0c1.2-0.1,2.3-0.8,2.9-1.9l0.6,4l-1.6,1.2  c-0.8,0.4-1.6,0.6-2.5,0.6c-2.6,0-3.9-1.5-3.9-4.4l0.1-0.9l0.8-10.3c1.1-4,3.5-6.2,7.1-6.7h0.7c1,0,1.9,0.3,2.8,0.8  c1,0.7,1.8,1.5,2.4,2.5c0.8-1.1,1.9-2,3.2-2.6l1.7-0.7h1.9C181.8,115,183.9,117.1,184.9,121.2z"></path>
<path class="st0" d="M168.7,149.1c-8.4,0-14-3.8-16.7-11.3l-0.2-0.9l2.2-28.8c0-0.3-0.1-0.6-0.3-0.9l-0.8-0.7l-0.9-0.4h-1.3l0.2-3.5  h2.8c2.7,0,4,1.7,4,5.1l-2.1,28.6c0.8,2.7,2.7,4.9,5.1,6.2c2.4,1.5,5.3,2.3,8.1,2.3c4.5,0,8.4-2.8,11.6-8.3l1-14.8  c-0.3-1.9-1.4-2.9-3.2-2.9h-1.4c-0.7,0.1-1.3,0.4-1.8,0.9c-0.6,0.7-1.2,1.5-1.6,2.3c-0.2,0.9-0.8,1.6-1.6,2l-0.1,0.1l-0.1-0.1  c-0.2-0.1-0.3-0.2-0.4-0.3c-0.4-0.3-0.7-0.7-1-1.1v-0.1c-0.7-2.4-2.2-3.6-4.5-3.6c-1.1,0-2.2,1.1-3.2,3.1l-0.8,10.1  c-0.1,0.5,0.3,1,0.9,1.1c0.1,0,0.1,0,0.2,0c1.1-0.1,2.1-0.8,2.7-1.8l0.4-0.6l0.7,4.9l-1.7,1.3c-0.8,0.4-1.7,0.7-2.7,0.7  c-2.8,0-4.2-1.6-4.2-4.7l0.1-0.9l0.8-10.3c1.2-4.2,3.6-6.5,7.4-7h0.7c1,0,2,0.3,2.9,0.8c0.9,0.6,1.7,1.4,2.3,2.3  c0.8-1,1.9-1.8,3.1-2.4l1.8-0.8h1.9c3.3,0,5.4,2.1,6.5,6.3v0.1l-1.4,16.8C180.4,145.4,175.3,149.1,168.7,149.1z M151.2,105.7h0.9  l1.1,0.5l0.8,0.7c0.3,0.4,0.4,0.8,0.5,1.3l-2.2,28.7l0.1,0.8c2.7,7.2,8.1,10.9,16.2,10.9c6.4,0,11.3-3.6,14.6-10.7l1.3-16.7  c-1-4-2.9-5.9-5.9-5.9h-1.9l-1.6,0.7c-1.2,0.6-2.3,1.4-3.1,2.5l-0.2,0.3l-0.2-0.3c-0.6-1-1.4-1.8-2.3-2.5c-0.8-0.4-1.7-0.7-2.6-0.7  H166c-3.5,0.5-5.7,2.6-6.8,6.5l-0.9,11.2c0,2.8,1.2,4.1,3.6,4.1c0.8,0,1.6-0.2,2.4-0.6l1.4-1.1l-0.5-3.2c-0.6,0.9-1.6,1.4-2.7,1.5  c-0.8,0-1.5-0.6-1.6-1.4c0-0.1,0-0.2,0-0.2l0.8-10.3c1.1-2.3,2.4-3.5,3.8-3.5c2.6,0,4.3,1.3,5.1,4c0.3,0.4,0.6,0.7,0.9,1  c0.1,0.1,0.2,0.1,0.2,0.2c0.6-0.4,1-1,1.2-1.6c0.5-0.9,1.1-1.7,1.8-2.5c0.6-0.6,1.4-0.9,2.2-1.1h1.4c2.1,0,3.4,1.2,3.8,3.4l-1.1,15  c-3.4,5.8-7.4,8.7-12.1,8.7c-3,0-5.9-0.8-8.4-2.4c-2.6-1.4-4.6-3.7-5.4-6.5v-0.1l2.1-28.6c0-3-1.1-4.5-3.4-4.5h-2.3L151.2,105.7z"></path>
<path class="st0" d="M215.3,130.6c0,2-0.4,4.1-1.3,5.9c-1,2.2-2.3,4.2-4,6c-3.9,4.3-8.3,6.4-13.2,6.4l0.2-2.9  c4.2,0,8.2-1.9,10.9-5.1c3-3.1,4.6-7.2,4.7-11.5v-1.9c-0.5-3.3-1.5-5.8-3-7.4c-1.7-1.7-4-2.6-6.3-2.5h-1c-1.4,0-2.8,0.3-4.1,1  c-1.4,0.8-2.6,1.7-3.6,2.9c-1.3,1.5-2.3,3.3-2.9,5.3l-0.3,2.2v1.2c0,3.7,1.1,6.1,3.3,7.2l3.3,0.7c2.5,0,4.4-1.4,5.8-4.3v-1.1  c0-1-0.5-1.9-1.3-2.4l-1.3-0.6c-1.3,0-2.6,0.9-4,2.7l-2.3-1.7c1.9-2.5,4.2-3.7,6.7-3.7c2-0.1,3.8,1.2,4.5,3.1l0.3,1.2v3  c0,2.1-1.1,4-2.9,5c-1.8,1-3.8,1.6-5.9,1.5c-3.9,0-6.6-1.5-8.1-4.6c-0.9-1.9-1.3-4-1.2-6.1v-3l0.4-0.8c0.6-3.1,2.3-5.8,4.7-7.8  c2.3-2.2,5.4-3.5,8.6-3.6h1.3c0.8,0,1.6,0,2.4,0.1c0.7,0.1,1.4,0.3,2.1,0.6c3.9,1.6,6.3,5.3,7.4,11L215.3,130.6L215.3,130.6z"></path>
<path class="st0" d="M196.8,149.3h-0.3l0.2-3.5h0.3c4.1,0,8-1.8,10.7-5c2.9-3,4.6-7.1,4.6-11.3v-1.9c-0.2-2.6-1.2-5.2-2.9-7.2  c-1.6-1.6-3.8-2.5-6.1-2.4h-1c-1.4,0-2.8,0.3-4,1c-1.3,0.7-2.5,1.7-3.6,2.8c-1.3,1.5-2.3,3.3-2.8,5.2l-0.3,2.2v1.2  c0,3.6,1.1,6,3.2,7l3.3,0.6c2.3,0,4.1-1.3,5.4-4.1v-1c0-0.9-0.4-1.7-1.2-2.2l-1.2-0.5c-1.1,0-2.4,0.9-3.7,2.6l-0.2,0.2l-2.7-2  l0.2-0.2c2-2.5,4.3-3.8,6.9-3.8c2.1-0.1,4.1,1.2,4.8,3.2l0.3,1.3v3.1c0,2.2-1.1,4.2-3,5.3c-1.8,1.1-3.9,1.6-6,1.5  c-4,0-6.8-1.6-8.3-4.8c-0.9-2-1.3-4.1-1.2-6.3v-3.1l0.4-0.8c0.6-3.1,2.3-5.9,4.8-7.9c2.4-2.3,5.5-3.6,8.8-3.6h1.3  c0.8,0,1.6,0,2.4,0.1c0.8,0.1,1.5,0.3,2.2,0.6c4,1.6,6.5,5.4,7.5,11.2v4c0,2.1-0.4,4.1-1.3,6c-1,2.2-2.4,4.3-4.1,6.1  C206.2,147.1,201.7,149.3,196.8,149.3z M197.3,146.4l-0.2,2.4c4.6-0.1,8.9-2.2,12.7-6.4c1.6-1.8,3-3.8,4-6c0.8-1.8,1.2-3.8,1.2-5.8  v-3.9c-1-5.5-3.4-9.1-7.2-10.7c-0.7-0.3-1.3-0.5-2-0.6c-0.6-0.1-1.4-0.1-2.4-0.1h-1.3c-3.2,0.1-6.2,1.3-8.4,3.5  c-2.4,1.9-4,4.6-4.6,7.6v0.1l-0.4,0.8v3c-0.1,2.1,0.3,4.1,1.2,6c1.4,3,4,4.5,7.8,4.5c2,0.1,4-0.4,5.7-1.5c1.7-1,2.8-2.8,2.8-4.8v-3  l-0.3-1.2c-0.6-1.8-2.3-3-4.2-2.9c-2.5,0.1-4.9,1.3-6.3,3.4l1.8,1.4c1.4-1.7,2.7-2.6,4-2.6h0.1l1.3,0.6c0.9,0.6,1.4,1.6,1.4,2.7v1.2  c-1.4,3-3.4,4.5-6,4.5l-3.4-0.7c-2.4-1.1-3.6-3.7-3.6-7.5v-1.2l0.3-2.3c0.6-2,1.6-3.9,3-5.4c1.1-1.1,2.3-2.1,3.7-2.9  c1.3-0.7,2.8-1.1,4.2-1.1h1c2.4-0.1,4.8,0.8,6.5,2.6c1.5,1.7,2.6,4.2,3.1,7.6v2c0,4.3-1.7,8.5-4.7,11.7  C205.4,144.4,201.5,146.3,197.3,146.4L197.3,146.4z"></path>
<path class="st0" d="M70.7,164.8c0-1.2,0-2.4-0.1-3.6h-1h-1l-1,0.1c-0.3,0-0.6,0-0.8,0.1c0.1-0.2,0.1-0.4,0.1-0.6  c0-0.2,0-0.4-0.1-0.5l2.3,0.1c0.8,0,1.5,0,2.3,0c0.7,0,1.5,0,2.3,0l2.3-0.1c-0.1,0.2-0.1,0.4-0.1,0.6c0,0.2,0,0.4,0.1,0.5  c-0.3,0-0.5-0.1-0.8-0.1l-1-0.1h-1h-0.9c0,1.2-0.1,2.4-0.1,3.6v3c0,0.8,0,1.5,0,2.3s0.1,1.5,0.1,2.3l-0.4-0.1h-0.4h-0.4l-0.4,0.1  l0.1-2.3c0-0.8,0.1-1.5,0.1-2.3L70.7,164.8z"></path>
<path class="st0" d="M83.9,172.3c-0.1-0.3-0.2-0.8-0.4-1.4s-0.4-1.4-0.7-2.1s-0.5-1.6-0.8-2.5s-0.5-1.7-0.8-2.5l-0.7-2.1  c-0.2-0.6-0.4-1.1-0.5-1.4l0.4,0.1c0.3,0,0.6,0,0.9,0l0.4-0.1c0.2,0.9,0.4,1.7,0.6,2.5s0.4,1.6,0.7,2.4s0.5,1.6,0.8,2.5  s0.6,1.9,0.9,3l0,0c0.1-0.3,0.3-0.8,0.4-1.3s0.4-1.2,0.6-1.8l0.7-2.1c0.2-0.7,0.5-1.4,0.7-2.1s0.4-1.3,0.6-1.8s0.3-1,0.4-1.3  c0.4,0.1,0.8,0.1,1.1,0c0.1,0.3,0.2,0.7,0.4,1.3c0.2,0.5,0.4,1.1,0.6,1.8s0.4,1.4,0.7,2.1s0.5,1.4,0.7,2.1s0.4,1.3,0.6,1.8l0.4,1.3  l0,0c0.1-0.3,0.2-0.6,0.4-1.2s0.4-1.1,0.6-1.8s0.4-1.4,0.7-2.1s0.4-1.5,0.6-2.1s0.4-1.3,0.5-1.8s0.3-0.9,0.3-1.2l0.3,0.1  c0.1,0,0.2,0,0.3,0c0.1,0,0.2,0,0.3,0l0.3-0.1c-0.1,0.3-0.3,0.7-0.5,1.3l-0.7,2.1l-0.9,2.5c-0.3,0.9-0.6,1.7-0.9,2.5  s-0.5,1.5-0.7,2.2s-0.4,1.1-0.5,1.4c-0.2-0.1-0.4-0.1-0.6-0.1c-0.2,0-0.4,0-0.6,0.1c-0.5-1.6-1-3.3-1.6-4.9s-1.1-3.3-1.6-5.1l0,0  c-0.1,0.3-0.2,0.6-0.4,1.1s-0.3,1-0.5,1.5s-0.4,1.2-0.6,1.8s-0.4,1.3-0.7,1.9l-0.6,1.9c-0.2,0.6-0.4,1.2-0.6,1.8  c-0.1,0-0.2,0-0.3-0.1c-0.1,0-0.2,0-0.3,0h-0.3L83.9,172.3z"></path>
<path class="st0" d="M101.9,164.8c0-0.8,0-1.5,0-2.3s-0.1-1.5-0.1-2.2l1.6,0.1c0.5,0,1,0,1.6,0c0.5,0,1,0,1.6,0l1.6-0.1  c0,0.2,0,0.3-0.1,0.5c0,0.2,0,0.4,0.1,0.5l-1-0.1l-1-0.1c-0.4,0-0.7,0-1.1,0s-0.9,0-1.5,0c0,0.4,0,0.7,0,1.1s0,0.7,0,1.1  s0,0.9,0,1.3s0,0.8,0,1c1,0,1.9,0,2.5,0s1.2-0.1,1.7-0.1c0,0.2,0,0.4,0,0.5c0,0.2,0,0.3,0,0.5c-0.3,0-0.6-0.1-1-0.1h-1.2h-1.1h-0.8  c0,0.1,0,0.2,0,0.3s0,0.3,0,0.5v1.7c0,0.7,0,1.2,0,1.6s0,0.8,0,1h1.2c0.4,0,0.9,0,1.3,0s0.8,0,1.2-0.1c0.3,0,0.7-0.1,1-0.1  c0,0.1,0,0.2,0,0.3c0,0.1,0,0.2,0,0.3c0,0.2,0,0.3,0.1,0.5c-0.5,0-1,0-1.6-0.1c-0.5,0-1,0-1.6,0s-1.1,0-1.6,0l-1.6,0.1  c0-0.8,0.1-1.5,0.1-2.3s0-1.5,0-2.3L101.9,164.8z"></path>
<path class="st0" d="M122.4,172.5c-1.3-1.6-2.8-3.2-4.3-4.8c-1.5-1.6-3-3.3-4.5-4.8c0,0.3,0,0.8,0,1.3s0,1.3,0,2.2v0.9  c0,0.4,0,0.7,0,1.1s0,0.8,0,1.2s0,0.8,0,1.1s0,0.7,0,0.9s0,0.5,0,0.6c-0.2-0.1-0.4-0.1-0.6-0.1c-0.1,0-0.2,0-0.3,0  c-0.1,0-0.2,0-0.3,0.1c0-0.1,0.1-0.4,0.1-0.7s0-0.7,0.1-1.1s0-0.9,0.1-1.4s0.1-1,0.1-1.5s0-1,0-1.5s0-0.9,0-1.3c0-1.1,0-2.1,0-2.9  s0-1.4,0-1.8h0.4l2.3,2.5l2.4,2.6l2.3,2.4c0.7,0.8,1.3,1.4,1.9,1.9v-2.4c0-0.8,0-1.6,0-2.4s0-1.6,0-2.3s0-1.5-0.1-2.1  c0.2,0.1,0.4,0.1,0.6,0.1c0.2,0,0.4,0,0.6-0.1c0,0.3-0.1,0.6-0.1,1.1s-0.1,1.1-0.1,1.6s-0.1,1.1-0.1,1.7s0,1,0,1.3s0,1,0,1.6  s0,1.3,0,1.9s0,1.2,0,1.8s0,0.9,0,1.1H122.4z"></path>
<path class="st0" d="M131,164.8c0-1.2,0-2.4-0.1-3.6H130h-1l-1,0.1c-0.3,0-0.6,0-0.8,0.1c0.1-0.2,0.1-0.4,0.1-0.6  c0-0.2,0-0.4-0.1-0.5l2.3,0.1c0.7,0,1.5,0,2.3,0c0.8,0,1.5,0,2.3,0l2.3-0.1c-0.1,0.2-0.1,0.4-0.1,0.6c0,0.2,0,0.4,0.1,0.5  c-0.3,0-0.5-0.1-0.8-0.1l-1-0.1h-1h-0.9c0,1.2-0.1,2.4-0.1,3.6v3c0,0.8,0,1.5,0,2.3l0.1,2.3l-0.4-0.1h-0.4h-0.4l-0.4,0.1  c0-0.8,0.1-1.5,0.1-2.3s0-1.5,0-2.3L131,164.8z"></path>
<path class="st0" d="M144.4,167.4l-0.5-0.9l-0.7-1.3l-0.9-1.5c-0.3-0.5-0.6-1-0.9-1.4s-0.5-0.9-0.7-1.2l-0.5-0.8l0.5,0.1  c0.3,0,0.7,0,1,0l0.5-0.1c0.5,1,1,2,1.6,3s1.1,2,1.7,3c0.3-0.4,0.6-0.9,0.8-1.4c0.3-0.5,0.6-1,0.9-1.5s0.6-1,0.8-1.6s0.5-1,0.8-1.5  c0.2,0.1,0.5,0.1,0.7,0.1c0.2,0,0.5,0,0.7-0.1c-0.6,0.9-1.1,1.6-1.5,2.3s-0.8,1.3-1.2,1.9s-0.6,1.1-0.9,1.5s-0.5,0.9-0.7,1.2  c0,0.4,0,0.9,0,1.4s0,1,0,1.4s0,0.9,0.1,1.3s0,0.8,0.1,1l-0.4-0.1h-0.4h-0.4l-0.4,0.1c0.1-0.6,0.1-1.4,0.1-2.2  S144.4,168.3,144.4,167.4z"></path>
<path class="st0" d="M162.9,164.8c0-0.8,0-1.5,0-2.3s-0.1-1.5-0.1-2.3l1.6,0.1c0.5,0,1,0,1.6,0h1.6l1.7-0.1c0,0.2,0,0.3,0,0.5  c0,0.2,0,0.4,0,0.5c-0.3,0-0.7-0.1-1.1-0.1l-1.4-0.1c-0.5,0-0.9,0-1.3,0s-0.8,0-1,0c0,0.4,0,0.8,0,1.2s0,0.7,0,1.1s0,0.8,0,1.1  s0,0.7,0,1.1c0.8,0,1.5,0,2.3,0s1.5-0.1,2.2-0.1c0,0.1,0,0.2,0,0.3c0,0.2,0,0.3,0,0.5c0,0.1,0,0.2,0,0.3l-1-0.1c-0.4,0-0.7,0-1.1,0  h-1.2h-1.2v1.5c0,0.8,0,1.5,0,2.3s0.1,1.5,0.1,2.3l-0.4-0.1c-0.1,0-0.3,0-0.4,0h-0.4l-0.4,0.1c0-0.8,0.1-1.5,0.1-2.3s0-1.5,0-2.3  L162.9,164.8z"></path>
<path class="st0" d="M173.6,164.8c0-0.8,0-1.5,0-2.3s-0.1-1.5-0.1-2.3l0.4,0.1c0.3,0,0.6,0,0.8,0l0.4-0.1c0,0.8-0.1,1.5-0.1,2.3  s0,1.5,0,2.3v3c0,0.8,0,1.5,0,2.3s0.1,1.5,0.1,2.3l-0.4-0.1h-0.4h-0.4l-0.4,0.1c0-0.8,0.1-1.5,0.1-2.3s0-1.5,0-2.3L173.6,164.8z"></path>
<path class="st0" d="M180.3,164.8c0-0.8,0-1.5,0-2.3s-0.1-1.5-0.1-2.3l1,0.1c0.3,0,0.7,0,1,0s0.7,0,1,0s0.7,0,1,0  c0.5,0,0.9,0,1.4,0.1c0.4,0.1,0.8,0.2,1.2,0.5c0.3,0.2,0.6,0.5,0.8,0.9c0.2,0.4,0.3,0.8,0.3,1.3c0,0.5-0.1,1-0.4,1.4  c-0.2,0.4-0.6,0.7-0.9,1c-0.4,0.3-0.7,0.5-1.2,0.6c-0.4,0.1-0.7,0.2-1.1,0.3l0.6,0.7l0.8,1l0.9,1.2l1,1.2c0.3,0.4,0.6,0.7,0.8,1.1  s0.5,0.6,0.6,0.8c-0.2,0-0.3-0.1-0.5-0.1c-0.2,0-0.3,0-0.5,0h-0.5c-0.2,0-0.3,0-0.5,0.1c-0.2-0.3-0.4-0.6-0.8-1.1s-0.7-1-1.2-1.6  s-0.9-1.1-1.3-1.7s-0.9-1-1.2-1.4h-0.7v1.3c0,0.8,0,1.5,0,2.3s0.1,1.5,0.1,2.3l-0.4-0.1H181h-0.4l-0.4,0.1c0-0.8,0.1-1.5,0.1-2.3  s0-1.5,0-2.3L180.3,164.8z M181.7,165.8c0.2,0,0.4,0.1,0.5,0.1h0.6c0.4,0,0.8,0,1.1-0.1c0.4-0.1,0.7-0.2,1.1-0.4  c0.3-0.2,0.6-0.5,0.8-0.8c0.2-0.4,0.3-0.8,0.3-1.3c0-0.4-0.1-0.8-0.3-1.1c-0.2-0.3-0.4-0.5-0.6-0.7c-0.3-0.2-0.6-0.3-0.9-0.4  c-0.3-0.1-0.6-0.1-0.9-0.1c-0.4,0-0.7,0-1,0l-0.7,0.1c0,0.6,0,1.3-0.1,1.9s0,1.3,0,1.9L181.7,165.8z"></path>
<path class="st0" d="M193.9,170c0.1,0.2,0.2,0.4,0.4,0.6c0.2,0.2,0.4,0.4,0.6,0.6c0.2,0.2,0.5,0.3,0.8,0.4c0.3,0.1,0.7,0.2,1,0.2  c0.3,0,0.7-0.1,1-0.2c0.3-0.1,0.6-0.3,0.8-0.5c0.2-0.2,0.4-0.5,0.5-0.8c0.1-0.3,0.2-0.7,0.2-1c0-0.5-0.1-0.9-0.4-1.3  c-0.3-0.3-0.6-0.6-1-0.8c-0.4-0.2-0.9-0.4-1.3-0.6c-0.5-0.2-0.9-0.4-1.3-0.6c-0.4-0.3-0.7-0.6-1-1c-0.3-0.5-0.4-1.1-0.4-1.6  c0-0.5,0.1-0.9,0.3-1.3c0.2-0.4,0.4-0.7,0.8-1c0.3-0.3,0.8-0.5,1.2-0.7c0.5-0.2,1-0.3,1.6-0.3c0.5,0,1,0.1,1.5,0.2  c0.4,0.1,0.8,0.3,1.1,0.6c-0.1,0.2-0.2,0.4-0.3,0.6c-0.1,0.3-0.2,0.6-0.2,0.8h-0.2c-0.1-0.2-0.1-0.4-0.2-0.5  c-0.1-0.2-0.2-0.4-0.4-0.5c-0.2-0.2-0.4-0.3-0.6-0.4c-0.3-0.1-0.5-0.2-0.8-0.2c-0.3,0-0.6,0-0.9,0.1c-0.3,0.1-0.5,0.3-0.7,0.5  c-0.2,0.2-0.4,0.4-0.5,0.7c-0.1,0.3-0.2,0.6-0.2,0.9c0,0.5,0.1,0.9,0.4,1.3c0.3,0.3,0.6,0.6,1,0.8c0.4,0.2,0.9,0.4,1.3,0.6  c0.5,0.2,0.9,0.4,1.3,0.6c0.4,0.2,0.7,0.6,1,0.9c0.3,0.5,0.4,1,0.4,1.5c0,0.5-0.1,1-0.3,1.5c-0.2,0.5-0.5,0.9-0.8,1.3  c-0.4,0.4-0.9,0.6-1.4,0.8c-0.6,0.2-1.2,0.3-1.8,0.3c-0.6,0-1.2-0.1-1.8-0.3c-0.4-0.2-0.8-0.4-1.1-0.7c0.1-0.2,0.2-0.5,0.2-0.7  c0-0.2,0.1-0.5,0.1-0.8L193.9,170z"></path>
<path class="st0" d="M208.5,164.8c0-1.2,0-2.4,0-3.6h-1h-1l-1,0.1c-0.3,0-0.6,0-0.8,0.1c0.1-0.4,0.1-0.7,0-1.1l2.3,0.1  c0.7,0,1.5,0,2.2,0s1.5,0,2.3,0l2.3-0.1c-0.1,0.2-0.1,0.4-0.1,0.6c0,0.2,0,0.4,0.1,0.5c-0.2,0-0.5-0.1-0.8-0.1l-1-0.1h-1h-1  c0,1.2,0,2.4,0,3.6v3c0,0.8,0,1.5,0,2.3s0.1,1.5,0.1,2.3l-0.4-0.1h-0.4h-0.4l-0.4,0.1c0-0.8,0.1-1.5,0.1-2.3s0-1.5,0-2.3  L208.5,164.8z"></path>
<path class="st0" d="M226.5,164.8c0-0.8,0-1.5,0-2.3s-0.1-1.5-0.1-2.2l0.9,0.1h0.9c0.3,0,0.6,0,0.9,0s0.6,0,0.9,0c0.5,0,1,0,1.4,0.1  c0.4,0.1,0.8,0.2,1.2,0.4c0.3,0.2,0.6,0.5,0.8,0.8c0.2,0.4,0.3,0.8,0.3,1.2c0,0.8-0.3,1.5-0.8,2c-0.6,0.5-1.3,0.9-2.1,1l0,0  c0.5,0,0.9,0.1,1.4,0.2c0.4,0.1,0.7,0.3,1,0.5c0.3,0.2,0.5,0.5,0.7,0.9c0.2,0.4,0.2,0.8,0.2,1.3c0,0.6-0.1,1.1-0.4,1.6  c-0.3,0.4-0.6,0.8-1,1.1c-0.4,0.3-0.9,0.5-1.4,0.6c-0.5,0.1-1,0.2-1.5,0.2c-0.3,0-0.6,0-0.8,0c-0.3,0-0.6,0-0.9,0h-0.9  c-0.3,0-0.6,0-0.8,0.1c0-0.8,0.1-1.5,0.1-2.3s0-1.5,0-2.3L226.5,164.8z M228.9,165.6c0.4,0,0.8,0,1.2-0.1c0.4-0.1,0.7-0.2,1.1-0.4  c0.3-0.2,0.6-0.5,0.8-0.8c0.2-0.4,0.3-0.8,0.3-1.2c0-0.4-0.1-0.8-0.2-1.1c-0.2-0.3-0.4-0.5-0.7-0.7c-0.3-0.2-0.6-0.3-0.9-0.3  c-0.3-0.1-0.7-0.1-1-0.1c-0.3,0-0.6,0-0.8,0l-0.6,0.1c0,0.6,0,1.1-0.1,1.7s0,1.1,0,1.6v1.3L228.9,165.6z M228,168.1  c0,0.6,0,1.2,0,1.8s0,1.2,0.1,1.8l0.8,0.1h0.9c0.4,0,0.7-0.1,1.1-0.2c0.3-0.1,0.6-0.3,0.9-0.6c0.3-0.3,0.5-0.6,0.6-0.9  c0.2-0.4,0.2-0.8,0.2-1.3c0-0.4-0.1-0.8-0.3-1.2c-0.2-0.3-0.5-0.6-0.8-0.8c-0.4-0.2-0.8-0.3-1.2-0.4c-0.5-0.1-1.1-0.1-1.6-0.1H228  L228,168.1z"></path>
<path class="st0" d="M243.5,160c0.3,0.7,0.6,1.4,0.9,2.2l1,2.4c0.3,0.8,0.7,1.6,1,2.4l0.9,2.2c0.3,0.7,0.6,1.3,0.8,1.8  s0.4,1,0.6,1.3l-0.5-0.1c-0.2,0-0.3,0-0.5,0c-0.2,0-0.3,0-0.5,0l-0.5,0.1c-0.1-0.3-0.2-0.6-0.3-1c-0.1-0.4-0.3-0.8-0.5-1.2  s-0.3-0.8-0.5-1.3s-0.4-0.8-0.5-1.2c-0.4,0-0.8,0-1.1,0h-2.2h-1.1c-0.4,0.9-0.7,1.8-1,2.6s-0.5,1.5-0.7,2.1l-0.3-0.1h-0.3  c-0.1,0-0.2,0-0.3,0l-0.3,0.1c0.9-2.1,1.9-4.1,2.8-6.1c0.9-2,1.8-4.1,2.7-6.1L243.5,160z M242.9,162.4l-1.9,4.4h1c0.3,0,0.6,0,1,0h1  h1L242.9,162.4z"></path>
<path class="st0" d="M253.3,172.3l0.1-2.3c0-0.8,0-1.5,0-2.3v-3c0-0.8,0-1.5,0-2.3l-0.1-2.3l0.4,0.1c0.3,0,0.6,0,0.8,0l0.4-0.1  c0,0.8-0.1,1.5-0.1,2.3s0,1.5,0,2.3v1c0,0.1,0,0.1,0.1,0.1s0.1,0,0.2-0.1c0.4-0.4,0.8-0.8,1.3-1.2s0.9-0.9,1.3-1.4s0.9-1,1.4-1.5  l1.3-1.4c0.2,0.1,0.5,0.1,0.7,0.1c0.1,0,0.3,0,0.4,0l0.4-0.1c-0.4,0.4-0.9,0.8-1.4,1.2s-1,1-1.5,1.5s-1,1-1.5,1.5s-0.9,0.9-1.2,1.3  c0.9,1.1,1.9,2.1,2.9,3.2c1,1.1,1.9,2.2,2.9,3.4c-0.2,0-0.4,0-0.5-0.1c-0.2,0-0.3,0-0.5,0h-0.5c-0.2,0-0.3,0-0.5,0.1  c-0.4-0.5-0.9-1.1-1.4-1.7s-1-1.2-1.5-1.8s-0.9-1.1-1.3-1.5s-0.7-0.8-0.9-1s-0.2-0.1-0.2-0.1s-0.1,0-0.1,0.1v1.5c0,0.8,0,1.5,0,2.3  s0.1,1.5,0.1,2.3l-0.4-0.1h-0.4h-0.4L253.3,172.3z"></path>
<path class="st0" d="M267,164.8c0-0.8,0-1.5,0-2.3s-0.1-1.5-0.1-2.2l1.6,0.1c0.5,0,1,0,1.6,0c0.5,0,1,0,1.5,0l1.6-0.1  c0,0.2-0.1,0.3-0.1,0.5c0,0.2,0,0.4,0.1,0.5l-1-0.1l-1-0.1c-0.3,0-0.7,0-1.1,0s-0.9,0-1.5,0c0,0.4,0,0.7,0,1.1s0,0.7,0,1.1  s0,0.9,0,1.3s0,0.8,0,1c1,0,1.9,0,2.5,0s1.2-0.1,1.7-0.1c0,0.2,0,0.4,0,0.5c0,0.2,0,0.3,0,0.5c-0.3,0-0.6-0.1-1-0.1h-1.2h-1.1h-0.8  c0,0.1,0,0.2,0,0.3s0,0.3,0,0.5v1.7c0,0.7,0,1.2,0,1.6s0,0.8,0,1h1.2c0.4,0,0.9,0,1.3,0s0.8,0,1.2-0.1c0.3,0,0.7-0.1,1-0.1  c0,0.1,0,0.2,0,0.3c0,0.1,0,0.2,0,0.3c0,0.2,0,0.3,0,0.5c-0.5,0-1,0-1.6-0.1c-0.5,0-1,0-1.6,0s-1.1,0-1.6,0l-1.6,0.1  c0-0.8,0.1-1.5,0.1-2.3s0-1.5,0-2.3L267,164.8z"></path>
<path class="st0" d="M277.7,164.8c0-0.8,0-1.5,0-2.3s-0.1-1.5-0.1-2.3l1,0.1c0.3,0,0.7,0,1,0s0.7,0,1,0s0.7,0,1,0  c0.5,0,0.9,0,1.4,0.1c0.4,0.1,0.8,0.2,1.2,0.5c0.3,0.2,0.6,0.5,0.8,0.9c0.2,0.4,0.3,0.8,0.3,1.3c0,0.5-0.1,1-0.4,1.4  c-0.2,0.4-0.6,0.7-0.9,1c-0.4,0.3-0.7,0.5-1.2,0.6c-0.4,0.1-0.7,0.2-1.1,0.3l0.6,0.7l0.8,1l0.9,1.2l1,1.2c0.3,0.4,0.6,0.7,0.8,1.1  s0.5,0.6,0.6,0.8c-0.2,0-0.3-0.1-0.5-0.1c-0.2,0-0.3,0-0.5,0H285c-0.2,0-0.3,0-0.5,0.1c-0.2-0.3-0.4-0.6-0.8-1.1s-0.7-1-1.2-1.6  s-0.9-1.1-1.3-1.7s-0.9-1-1.2-1.4h-0.7v1.3c0,0.8,0,1.5,0,2.3s0.1,1.5,0.1,2.3l-0.4-0.1h-0.4h-0.4l-0.4,0.1c0-0.8,0.1-1.5,0.1-2.3  s0-1.5,0-2.3L277.7,164.8z M279.2,165.8c0.2,0,0.4,0.1,0.5,0.1h0.6c0.4,0,0.8,0,1.1-0.1c0.4-0.1,0.7-0.2,1.1-0.4  c0.3-0.2,0.6-0.5,0.8-0.8c0.2-0.4,0.3-0.8,0.3-1.3c0-0.4-0.1-0.8-0.3-1.1c-0.2-0.3-0.4-0.5-0.6-0.7c-0.3-0.2-0.6-0.3-0.9-0.4  c-0.3-0.1-0.6-0.1-0.9-0.1c-0.4,0-0.7,0-1,0l-0.7,0.1c0,0.6,0,1.3-0.1,1.9s0,1.3,0,1.9L279.2,165.8z"></path>
<path class="st0" d="M293.6,167.4l-0.5-0.9l-0.7-1.3c-0.3-0.5-0.6-1-0.9-1.5s-0.6-1-0.9-1.4s-0.5-0.9-0.8-1.2s-0.4-0.6-0.5-0.8  l0.5,0.1c0.2,0,0.3,0,0.5,0c0.2,0,0.3,0,0.5,0l0.5-0.1c0.5,1,1,2,1.6,3s1.1,2,1.7,3c0.3-0.4,0.5-0.9,0.8-1.4s0.6-1,0.9-1.5l0.8-1.6  c0.3-0.5,0.5-1,0.8-1.5c0.2,0.1,0.5,0.1,0.7,0.1c0.2,0,0.5,0,0.7-0.1c-0.5,0.9-1,1.6-1.5,2.3l-1.2,1.9c-0.3,0.5-0.6,1.1-0.9,1.5  s-0.5,0.9-0.7,1.2c0,0.4,0,0.9,0,1.4s0,1,0,1.4s0,0.9,0,1.3s0,0.8,0.1,1l-0.4-0.1h-0.4h-0.4l-0.4,0.1c0.1-0.7,0.1-1.5,0.1-2.2  C293.6,169.2,293.6,168.3,293.6,167.4z"></path>
<path class="st0" d="M273.7,132.8c1,4.6,6.5,8.3,6.5,8.3c1.2,2.4,6.3,2.1,6.3,2.1c5.2,0.1,6.1-2.1,6.1-2.1c1.4-1.1,2.8-2.4,4-3.7  c2.8-3.5,2.5-5,2.5-5c-0.1-1.2-0.4-2.3-0.9-3.4c0.3-1.1-0.9-3-0.9-3c0.4-0.2,0.7-0.6,0.7-1.1c0.1-1-1.5-3.6-1.5-3.6  c-1.1-2-2.5-3.8-4.1-5.4c-0.9-0.6-2-1.1-3-1.5c-1.1-0.2-2.2-0.4-3.3-0.4c-5.5-0.1-7.2,2.9-7.2,2.9c-1.2,1.4-4.9,9.7-4.9,9.7  c-0.4,1.4,0.5,1.8,0.5,1.8c-0.3,0.7-0.5,1.4-0.7,2.1C273.6,131.3,273.6,132.1,273.7,132.8z M297.5,128.6c0,0,0.1,1-0.6,1  c0,0-0.5,0.1-0.8-1c0,0-1.2-3.9-1.4-4.2c0,0-0.5-1-1.2-0.6c-0.1,0.1-0.2,0.3-0.1,0.4c0,0-0.6,0.4-2.5-2.3c0,0-0.9-1-1.3,0.2  c0,0,0.8,2.6,1,3.8l0.2,1.4c0.2,0.5-0.1,1.1-0.7,1.3c-0.1,0-0.2,0.1-0.3,0c-1.3,0-1.8-4.8-1.8-4.8s-0.6-1-1.3-1c0,0-1.3-0.1-1.8,1.6  l-0.9,6c0,0-0.5,2.1-1.5,2.1c0,0-0.5,0-0.9-1c-0.3-0.7-0.4-1.4-0.3-2.1c0,0,1.5-7.9-0.1-7.9c0,0-0.7-0.2-1.2,0.8  c0,0-1.4,4.3-1.6,5.3c0,0-0.3,1.5-1.3,1.6c0,0-0.8,0.1-0.6-1.6c0.2-1,0.4-1.9,0.8-2.8c0.2-0.4,0.2-0.9,0.1-1.3c-0.3-0.2-0.8,0-1,0.3  c-0.6,1.3-1.1,2.6-1.4,4c0,0-0.2,0.5-0.1-0.9c0,0,4.2-8.7,4.4-8.9c0,0,2.2-2.7,7.2-2.3c0,0,2,0.1,3.9,0.4c0,0,2.2,1,2.5,1.7  c0,0,5.6,6.6,4.4,7.6c0,0-0.8-1.7-1.2-1.6c0,0.6,0.1,1.2,0.3,1.8l1.1,2.2C297.5,128,297.5,128.3,297.5,128.6L297.5,128.6z   M274.5,130.8l0.7-2.5c0.2-0.1,0.3-0.3,0.4-0.5c-0.2,2.1,1.4,2,1.4,2c1.7,0,2.1-2.8,2.1-2.8c0.5-2,1-1.7,1-1.7  c0.7,0.3,0.4,4.7,0.4,4.7c-0.5,3.9,2,3.8,2,3.8c0.9,0.1,1.7-0.5,1.9-1.3l1.1-4.5c0.6-1.6,1.5-0.8,1.5-0.8c0.1,0.3,0.4,0.6,0.4,0.6  c1.3,1.6,2.5,1.5,2.5,1.5c1.8-0.1,1.7-1.6,1.7-1.6c0-0.7-0.1-1.4-0.2-2.1c-0.3-1.2,0-0.9,0-0.9c2.6,4.4,2.7,0,2.7,0  c0.2,0,1.6,4.6,1.6,4.6c1,1.8,2.1,0.8,2.1,0.8c0.1,0.4,0.3,0.8,0.5,1.2c0.1,0.6,0.1,1.2,0,1.7c-2.1,3.9-11.8,3.8-11.8,3.8  c-6.4,0-9.9-1.9-9.9-1.9C273.7,133.4,274.5,130.9,274.5,130.8L274.5,130.8z"></path>
<path class="st0" d="M92.8,130.6c-0.2-0.7-0.4-1.5-0.7-2.1c0,0,0.9-0.4,0.5-1.8c0,0-3.7-8.3-4.9-9.7c0,0-1.8-2.9-7.2-2.9  c-1.1,0-2.2,0.1-3.3,0.4c-1,0.4-2.1,0.9-3,1.5c-1.6,1.6-3,3.4-4.1,5.4c0,0-1.6,2.6-1.5,3.6c0,0.5,0.3,0.9,0.7,1.1c0,0-1.2,1.9-0.9,3  c-0.5,1.1-0.8,2.2-0.9,3.4c0,0-0.3,1.4,2.5,5c1.2,1.3,2.6,2.6,4,3.7c0,0,0.9,2.2,6.2,2.1c0,0,5.1,0.3,6.3-2.1c0,0,5.6-3.8,6.6-8.3  C92.9,132,92.8,131.3,92.8,130.6z M69.2,127.7l1.1-2.2c0.2-0.6,0.3-1.2,0.3-1.8c-0.5-0.2-1.2,1.6-1.2,1.6c-1.2-1,4.4-7.6,4.4-7.6  c0.3-0.7,2.5-1.7,2.5-1.7c1.9-0.3,3.9-0.4,3.9-0.4c5-0.5,7.2,2.3,7.2,2.3c0.2,0.2,4.4,8.9,4.4,8.9c0.2,1.4-0.1,0.9-0.1,0.9  c-0.3-1.4-0.8-2.7-1.4-4c-0.2-0.3-0.6-0.5-0.9-0.3c-0.1,0.4,0,0.9,0.1,1.3c0.4,0.9,0.6,1.9,0.8,2.8c0.2,1.8-0.6,1.6-0.6,1.6  c-1,0-1.3-1.6-1.3-1.6c-0.2-0.9-1.6-5.3-1.6-5.3c-0.5-1-1.2-0.8-1.2-0.8c-1.6,0-0.1,7.9-0.1,7.9c0,0.7-0.1,1.5-0.3,2.1  c-0.4,0.9-0.9,1-0.9,1c-1,0.1-1.5-2.1-1.5-2.1l-0.9-6c-0.5-1.8-1.8-1.6-1.8-1.6c-0.7,0-1.3,1-1.3,1s-0.5,4.8-1.8,4.7  c-0.5,0.1-1-0.3-1.1-0.9c0-0.1,0-0.3,0-0.4l0.2-1.4c0.2-1.2,1-3.8,1-3.8c-0.4-1.2-1.3-0.2-1.3-0.2c-1.9,2.8-2.5,2.3-2.5,2.3  c0-0.2,0-0.3-0.1-0.4c-0.6-0.4-1.2,0.6-1.2,0.6c-0.2,0.3-1.4,4.2-1.4,4.2c-0.3,1-0.8,1-0.8,1c-0.6,0-0.6-1-0.6-1  C69,128.3,69.1,127.9,69.2,127.7L69.2,127.7z M89.9,134.9c0,0-3.4,1.9-9.9,1.9c0,0-9.7,0-11.8-3.8c-0.1-0.6-0.1-1.2,0-1.7  c0.2-0.4,0.4-0.8,0.5-1.2c0,0,1.1,1,2.1-0.8c0,0,1.4-4.6,1.6-4.6c0,0,0.2,4.4,2.7,0c0,0,0.3-0.3,0,0.9c-0.1,0.7-0.2,1.4-0.2,2.1  c0,0-0.1,1.5,1.7,1.6c0,0,1.2,0.2,2.5-1.4c0,0,0.2-0.3,0.4-0.6c0,0,0.9-0.8,1.4,0.8l1.1,4.5c0.3,0.8,1.1,1.4,1.9,1.3  c0,0,2.5,0.1,2-3.8c0,0-0.3-4.4,0.4-4.7c0,0,0.4-0.3,1,1.7c0,0,0.4,2.8,2.1,2.8c0,0,1.6,0.1,1.4-2c0.1,0.2,0.2,0.3,0.4,0.5l0.7,2.5  C92.1,130.9,92.8,133.4,89.9,134.9z"></path>
</svg>